<svg id="Layer_1" data-name="Layer 1" xmlns="http://www.w3.org/2000/svg" viewBox="0 0 75 48.81"><defs><style>.cls-1{fill:#306fc5;}.cls-2{fill:#fff;}</style></defs><title>amex icon</title><g id="Page-1"><g id="american-express"><g id="Group_144" data-name="Group 144"><path id="Path_212" data-name="Path 212" class="cls-1" d="M1754,596.23h74.84V547.42H1754Z" transform="translate(-1753.87 -547.42)"/><path id="Path_213" data-name="Path 213" class="cls-1" d="M1828.71,547.42h0" transform="translate(-1753.87 -547.42)"/></g><path id="Shape" class="cls-2" d="M1760.71,565.32l-1.46-3.74-1.46,3.74Zm31.89-1.46a2.41,2.41,0,0,1-1.14.16h-2.6V561.9h2.6c.33,0,.81,0,1,.16a.89.89,0,0,1,.49.81.72.72,0,0,1-.32,1Zm18.38,1.46-1.46-3.74-1.46,3.74Zm-34.16,3.9h-2.11v-7.16l-3.09,7.16h-1.79l-3.25-7.16v7.16h-4.23l-.81-2.11h-4.39l-.81,2.11H1754l3.74-9.27h3.09l3.58,8.79v-8.62h3.42l2.77,6.18,2.6-6.18h3.58Zm8.62,0h-7v-9.11h7v2h-4.88v1.63h4.88v2h-4.88v1.79h4.88Zm9.92-6.67a2.58,2.58,0,0,1-1.46,2.44,1.67,1.67,0,0,1,1,.81c.33.49.33.81.33,1.79v1.79h-2.11v-1.14a3.5,3.5,0,0,0-.33-1.79c-.33-.33-.81-.33-1.46-.33H1789v3.42h-2.11v-9.44h4.88a4.42,4.42,0,0,1,2.6.49C1795,560.93,1795.36,561.41,1795.36,562.55Zm3.42,6.67h-2.11v-9.11h2.11Zm25.05,0h-2.93l-4.07-7v7h-4.23l-.81-2.11h-4.39l-.81,2.11h-2.44a4.4,4.4,0,0,1-3.09-1,4.52,4.52,0,0,1-1.14-3.58,4.76,4.76,0,0,1,1.14-3.58,4,4,0,0,1,3.25-1.14h2.11v2.11h-2a2.43,2.43,0,0,0-1.63.49,3.25,3.25,0,0,0-.65,2.11,3.69,3.69,0,0,0,.49,2.11,2.27,2.27,0,0,0,1.46.49h1L1808,560h3.25l3.58,8.79v-8.62h3.25l3.74,6.51v-6.51h2Zm-69.79,2h3.58l.81-2.11h1.79l.81,2.11h7.16v-1.63l.65,1.63h3.74l.65-1.63v1.63H1791v-3.42h.33c.16,0,.33,0,.33.49v2.93h9.11v-.81a8.05,8.05,0,0,0,3.42.81h3.9l.81-2.11h1.79l.81,2.11h7.48v-2l1.14,2h5.86v-13h-5.86v1.46l-1.14-1.46h-6v1.46l-.81-1.46H1804a8.28,8.28,0,0,0-3.58.65v-.65h-5.53v.65a3.11,3.11,0,0,0-2.44-.65h-20.5l-1.3,3.25-1.46-3.25h-6.51v1.46l-.65-1.46h-5.53l-2.6,6.18v6.83Zm74.67,6.83h-3.9a1.22,1.22,0,0,0-.81.16.84.84,0,0,0-.33.65c0,.33.16.65.49.65a1.22,1.22,0,0,0,.81.16h1.14a3.38,3.38,0,0,1,2.44.65c.16,0,.16.16.16.33Zm0,6c-.49.81-1.46,1.14-2.93,1.14h-4.07v-2h4.07c.49,0,.65,0,.81-.33.16-.16.16-.33.16-.65a.84.84,0,0,0-.33-.65h-.49c-2,0-4.56,0-4.56-2.93a2.74,2.74,0,0,1,3.09-2.77h4.23V574.1h-3.9a5,5,0,0,0-2.6.65v-.65h-5.86a4.43,4.43,0,0,0-2.6.65v-.65h-10.25v.65a5.09,5.09,0,0,0-2.93-.65h-6.83v.65c-.65-.65-2.11-.65-2.93-.65h-7.65l-1.63,2-1.63-2h-11.39V587h11.23l1.79-2,1.63,2h7v-3.09h.65a6.19,6.19,0,0,0,2.93-.49v3.42h5.69v-3.42h.33c.33,0,.33,0,.33.33v2.93h17.25a5.21,5.21,0,0,0,2.93-.81v.81h5.53a6.19,6.19,0,0,0,3.09-.65Zm-8.46-3.74a2.38,2.38,0,0,1,.65,2c0,2-1.14,2.93-3.25,2.93h-4.07v-2h4.07c.49,0,.65,0,.81-.33.16-.16.16-.33.16-.65a.84.84,0,0,0-.33-.65h-.65c-2,0-4.39,0-4.39-2.93a2.74,2.74,0,0,1,3.09-2.77h4.23v2h-3.9a1.22,1.22,0,0,0-.81.16.84.84,0,0,0-.33.65c0,.33.16.65.49.65a1.22,1.22,0,0,0,.81.16H1818A4.18,4.18,0,0,1,1820.25,580.29Zm-19-.49a2.06,2.06,0,0,1-1,.16h-2.6v-2.11h2.6c.33,0,.81,0,1,.16a.89.89,0,0,1,.49.81A1,1,0,0,1,1801.21,579.8Zm1.3,1.14a1.67,1.67,0,0,1,1,.81,2.44,2.44,0,0,1,.33,1.63v1.79h-2.11v-1.3a3.5,3.5,0,0,0-.33-1.79c-.33-.33-.81-.33-1.46-.33h-2.28v3.42h-2.11v-9.27h4.88a4.42,4.42,0,0,1,2.6.49,2.33,2.33,0,0,1,1.14,2.11A3.24,3.24,0,0,1,1802.52,580.94Zm2.6-5h7v2h-4.88v1.63h4.88v2h-4.88v1.79h4.88v2h-7Zm-14.32,4.39H1788V578h2.77c.81,0,1.3.33,1.3,1.14C1792.27,579.8,1791.62,580.29,1790.8,580.29Zm-4.72,4.07-3.25-3.74,3.25-3.74Zm-8.46-1.14h-5.21v-1.79H1777v-2h-4.56v-1.63h5.37l2.28,2.6Zm16.92-4.23c0,2.6-1.79,3.09-3.74,3.09h-2.6v3.09h-4.07l-2.6-3.09-2.77,3.09h-8.46v-9.27h8.46l2.6,3.09,2.77-3.09h6.67C1792.59,575.89,1794.54,576.38,1794.54,579Z" transform="translate(-1753.87 -547.42)"/></g></g></svg>