<svg id="Layer_1" data-name="Layer 1" xmlns="http://www.w3.org/2000/svg" viewBox="0 0 75 48.46"><defs><style>.cls-1{fill:#e8e8e8;}.cls-2{fill:#231f20;}.cls-3{fill:#d83768;}.cls-4{fill:#b01117;}.cls-5{fill:#d83a2b;}.cls-6{fill:#9d0b0f;}.cls-7{fill:#c3161c;}</style></defs><title>bkash icon</title><g id="bkash"><rect id="Rectangle_218" data-name="Rectangle 218" class="cls-1" width="75" height="48.46"/><g id="Group_115" data-name="Group 115"><g id="Group_113" data-name="Group 113"><path id="Path_123" data-name="Path 123" class="cls-2" d="M1378.92,570.68a2.07,2.07,0,0,0-.16-1c0-.32-.16-.49-.49-.82l1.79-.32v5.54a.16.16,0,0,0,.16.16h0l.16-.16.49-.49c.16-.16.49-.32.65-.49a1.77,1.77,0,0,1,.82-.16,3.84,3.84,0,0,1,1.3.32,1.67,1.67,0,0,1,.82,1,11.23,11.23,0,0,1,.49,1.3,4.05,4.05,0,0,1,.16,1.3c0,.49-.16,1.14-.16,1.63a3.28,3.28,0,0,1-.65,1.31,6.9,6.9,0,0,1-1.14.82,2.68,2.68,0,0,1-1.63.32h-.65a1867678.34,1867678.34,0,0,0-1.31-.33h-.65Zm4.89,5.22c-.16-.32-.16-.82-.32-1a2.86,2.86,0,0,0-.65-.82,1.24,1.24,0,0,0-.82-.32,1.32,1.32,0,0,0-1.3.65,3.48,3.48,0,0,0-.49,1.95v2.28c0,.32.16.49.16.82a.52.52,0,0,0,.49.49,1.22,1.22,0,0,0,.82.16,1.38,1.38,0,0,0,1-.32,1.63,1.63,0,0,0,.65-.82c.32,0,.49-.49.49-.82s.16-.82.16-1.14A2.77,2.77,0,0,1,1383.81,575.9Z" transform="translate(-1372.24 -548.02)"/><path id="Path_124" data-name="Path 124" class="cls-2" d="M1387.24,572v-1.3a3,3,0,0,0-.32-1.14h2.28a2.36,2.36,0,0,0-.32,1.14v4.07a1.24,1.24,0,0,0,.65-.32c.16-.16.49-.32.65-.49.16-.32.49-.49.65-.65.16-.32.49-.49.65-.82.49-.49.82-1,1.14-1.3a1.49,1.49,0,0,0,.49-.82V570h2a9.81,9.81,0,0,0-2.12,2.12l-2.78,2.61,2.77,4.07c.16.32.49.65.65,1,.32.32.49.65.82,1h-1.8c-.16,0-.32,0-.32-.16l-.32-.32-2.94-4.73-.16-.16-.16-.16h0v4.4a2.36,2.36,0,0,0,.32,1.14h-2.28a2.36,2.36,0,0,0,.32-1.14v-1.3l.16-6.36Z" transform="translate(-1372.24 -548.02)"/><path id="Path_125" data-name="Path 125" class="cls-2" d="M1399.47,580.79a1.47,1.47,0,0,1-.16-.82c0-.16,0-.32-.16-.32h0c-.16.16-.16.32-.32.49q-.24.49-.49.49c-.16.16-.32.16-.49.32-.16,0-.49.16-.65.16a2,2,0,0,1-1.47-.49,1.59,1.59,0,0,1-.66-1.47,2.32,2.32,0,0,1,.32-1,1.63,1.63,0,0,1,.82-.65l1-.49,1-.49c.16-.16.49-.16.65-.32s.32-.16.32-.32.16-.16.16-.49v-.66a2.36,2.36,0,0,0-.32-1.14,1,1,0,0,0-1-.49,1,1,0,0,0-.82.32c-.16.16-.32.32-.32.49-.16.16-.16.32-.32.49s-.32.32-.49.32a.6.6,0,0,1-.49-.16c-.16-.16-.16-.16-.16-.49a.85.85,0,0,1,.32-.65c.16-.16.49-.32.65-.49.32-.16.65-.16,1-.32.32,0,.65-.16,1-.16h.81c.32,0,.49.16.65.16l.49.49a1,1,0,0,1,.16.65V579a1.85,1.85,0,0,0,.49,1.3Zm-2.61-1a1.24,1.24,0,0,0,.82.32,1,1,0,0,0,.65-.16c.16-.16.32-.16.49-.49.16-.16.16-.32.32-.65a1.23,1.23,0,0,0,.16-.65v-1.79l-1,.65a3.56,3.56,0,0,0-.82.49c-.16.16-.49.32-.65.49s-.32.32-.32.49c-.16.16-.16.32-.16.65C1396.53,579.16,1396.53,579.48,1396.86,579.81Z" transform="translate(-1372.24 -548.02)"/><path id="Path_126" data-name="Path 126" class="cls-2" d="M1403.54,575.25c.16.16.32.49.65.65s.49.32.82.49a3.56,3.56,0,0,1,.82.49c.32.16.49.49.65.65a2.32,2.32,0,0,1,.32,1,2.36,2.36,0,0,1-.32,1.14c-.16.32-.49.49-.65.82l-1,.49a3,3,0,0,1-2,0,1.24,1.24,0,0,1-.82-.32.16.16,0,0,1-.16-.16h0a.58.58,0,0,1-.16-.32v-1.32a2.35,2.35,0,0,1,.32.49l.49.49c.16.16.32.16.49.32.16,0,.49.16.65.16a2.36,2.36,0,0,0,1.14-.32,1.27,1.27,0,0,0,.49-1.14,7.06,7.06,0,0,0-.16-.82c-.16-.16-.32-.49-.65-.65a3.56,3.56,0,0,0-.82-.49c-.32-.16-.49-.32-.82-.49l-.65-.65a2.42,2.42,0,0,1-.16-1.14,1.59,1.59,0,0,1,.65-1.47,2.93,2.93,0,0,1,1.79-.49h.82a7.06,7.06,0,0,0,.82.16h.16a.16.16,0,0,1,.16.16h0v1.15l-.49-.49c-.16-.16-.32-.16-.49-.32a.6.6,0,0,0-.49-.16h-.49a7.06,7.06,0,0,0-.82.16c-.32.16-.32.49-.32.82A2.1,2.1,0,0,0,1403.54,575.25Z" transform="translate(-1372.24 -548.02)"/><path id="Path_127" data-name="Path 127" class="cls-2" d="M1414,578.83v1a7.06,7.06,0,0,0,.16.82h-1.47v-5.54c0-.32-.16-.49-.16-.65q-.24-.49-.49-.49a2.12,2.12,0,0,0-1.63,0l-.49.49a1.22,1.22,0,0,0-.16.82v4.57a1.24,1.24,0,0,0,.32.82h-1.79c.16-.32.16-.49.32-.82V569.7a.85.85,0,0,0-.32-.66l1.63-.32v5.22a.16.16,0,0,0,.16-.16h0a1.23,1.23,0,0,1,.49-.32c.32-.16.49-.16.65-.32a1.77,1.77,0,0,1,.82-.16,2,2,0,0,1,1.47.49,2.43,2.43,0,0,1,.49,1.63v3.75Z" transform="translate(-1372.24 -548.02)"/></g><g id="Group_114" data-name="Group 114"><path id="Path_128" data-name="Path 128" class="cls-3" d="M1412.35,557.8l14,2-3.26,12.07Z" transform="translate(-1372.24 -548.02)"/><path id="Path_129" data-name="Path 129" class="cls-3" d="M1426.86,559.76l10.43,14.35-12.07,6-1.47-6.36a8.63,8.63,0,0,1,.16-4.07Z" transform="translate(-1372.24 -548.02)"/><path id="Path_130" data-name="Path 130" class="cls-4" d="M1437.78,574.1l-3.91-5.71,6.52-1.14Z" transform="translate(-1372.24 -548.02)"/><path id="Path_131" data-name="Path 131" class="cls-4" d="M1440.88,567.26l2.45,2.77h-3.59Z" transform="translate(-1372.24 -548.02)"/><path id="Path_132" data-name="Path 132" class="cls-5" d="M1427.35,579.65l9.95-5.05-.32,1.3Z" transform="translate(-1372.24 -548.02)"/><path id="Path_133" data-name="Path 133" class="cls-6" d="M1423.11,573.13l-4.24,14.35,6.36-5.05Z" transform="translate(-1372.24 -548.02)"/><path id="Path_134" data-name="Path 134" class="cls-4" d="M1417.73,565.63l-3.91-5.38-1.63.16Z" transform="translate(-1372.24 -548.02)"/><path id="Path_135" data-name="Path 135" class="cls-7" d="M1423.76,573a2,2,0,0,0,.16.82l1.47,6.36,12.07-6-.16-.16Z" transform="translate(-1372.24 -548.02)"/></g></g></g></svg>