<svg id="Layer_1" data-name="Layer 1" xmlns="http://www.w3.org/2000/svg" viewBox="0 0 22.95 22.3"><defs><style>.cls-1{fill:#0f0f0f;stroke:#0f0f0f;stroke-miterlimit:10;stroke-width:0.29px;}</style></defs><title>cart icon</title><path class="cls-1" d="M1056.31,323.48a2.35,2.35,0,1,0,2.35,2.35h0A2.35,2.35,0,0,0,1056.31,323.48Zm0,3.69a1.34,1.34,0,1,1,1.34-1.34h0A1.34,1.34,0,0,1,1056.31,327.17Z" transform="translate(-1048.94 -306.02)"/><path class="cls-1" d="M1066.32,323.48a2.35,2.35,0,1,0,2.35,2.35h0A2.35,2.35,0,0,0,1066.32,323.48Zm0,3.69a1.34,1.34,0,1,1,1.34-1.34h0A1.34,1.34,0,0,1,1066.32,327.17Z" transform="translate(-1048.94 -306.02)"/><path class="cls-1" d="M1071.25,309.47l-17.18-.26-.47-1.43a2.35,2.35,0,0,0-2.23-1.62h-1.78a.51.51,0,1,0,0,1h1.78a1.34,1.34,0,0,1,1.27.92l.6,1.8,2.75,8.3-.25.6a2.34,2.34,0,0,0,2.17,3.23h10.26a.51.51,0,1,0,0-1h-10.26a1.33,1.33,0,0,1-1.24-1.84l.19-.47,11.1-1.14a2.88,2.88,0,0,0,2.5-2.19l1.27-5.29a.51.51,0,0,0-.37-.61Zm-1.77,5.68a1.87,1.87,0,0,1-1.63,1.42l-11,1.13-2.47-7.47,16.2.24Z" transform="translate(-1048.94 -306.02)"/></svg>