<svg id="Layer_1" data-name="Layer 1" xmlns="http://www.w3.org/2000/svg" viewBox="0 0 12.37 9.42"><defs><style>.cls-1{fill:#747474;}</style></defs><title>contact email icon</title><path class="cls-1" d="M1083,356.52h-10.19a1.09,1.09,0,0,0-1.09,1.09v7.25a1.09,1.09,0,0,0,1.09,1.09H1083a1.09,1.09,0,0,0,1.09-1.09V357.6A1.09,1.09,0,0,0,1083,356.52Zm-.15.72-4.92,4.92-5-4.92Zm-10.4,7.46v-6.95l3.49,3.46Zm.51.51,3.49-3.49,1.22,1.21a.36.36,0,0,0,.51,0l1.19-1.19,3.47,3.47Zm10.4-.51-3.47-3.47,3.47-3.47Z" transform="translate(-1071.7 -356.52)"/></svg>