<svg xmlns="http://www.w3.org/2000/svg" xmlns:xlink="http://www.w3.org/1999/xlink" viewBox="0 0 227.6 396.33"><defs><style>.cls-1,.cls-21,.cls-22{fill:none;}.cls-2{isolation:isolate;}.cls-3{clip-path:url(#clip-path);}.cls-4{fill:#1a1a1a;}.cls-5{fill:#b3b3b3;}.cls-16,.cls-17,.cls-5{mix-blend-mode:multiply;}.cls-6{clip-path:url(#clip-path-2);}.cls-7{fill:#3ba8c4;}.cls-8{fill:#47cced;}.cls-9{fill:#44c3e3;}.cls-10{fill:#3fb6d4;}.cls-11{fill:#3dafcc;}.cls-12{fill:#369fba;}.cls-13{fill:#2b93ad;}.cls-14{fill:#2588a1;}.cls-15{fill:#207e96;}.cls-16{fill:#e6e6e6;}.cls-17{fill:url(#linear-gradient);}.cls-18{fill:#fff;}.cls-19{fill:#f2f2f2;}.cls-20{fill:#29abe2;}.cls-21,.cls-22{stroke:#fff;stroke-miterlimit:10;}.cls-21{stroke-width:2px;}.cls-23{fill:#ea4747;}.cls-24{fill:url(#linear-gradient-2);}.cls-25{fill:url(#linear-gradient-3);}.cls-26{fill:url(#linear-gradient-4);}.cls-27{fill:url(#linear-gradient-5);}.cls-28{fill:url(#linear-gradient-6);}.cls-29{fill:url(#linear-gradient-7);}.cls-30{fill:url(#linear-gradient-8);}.cls-31{fill:url(#linear-gradient-9);}.cls-32{fill:url(#linear-gradient-10);}.cls-33{fill:url(#linear-gradient-11);}.cls-34{fill:url(#linear-gradient-12);}.cls-35{fill:url(#linear-gradient-13);}</style><clipPath id="clip-path" transform="translate(-387.24 -328.09)"><path id="SVGID" class="cls-1" d="M595.26,723.77c10.69,0,19.35-8.94,19.35-20V348.11c0-11-8.66-20-19.35-20H406.59c-10.69,0-19.35,8.94-19.35,20V703.8c0,11,8.66,20,19.35,20Z"/></clipPath><clipPath id="clip-path-2" transform="translate(-387.24 -328.09)"><path id="SVGID-2" data-name="SVGID" class="cls-1" d="M615,724.42V543.66a215,215,0,0,0-227.6,0V724.42Z"/></clipPath><linearGradient id="linear-gradient" x1="-1108.51" y1="-1534.09" x2="-880.91" y2="-1534.09" gradientTransform="matrix(1, 0, 0, -1, 1495.74, -929.26)" gradientUnits="userSpaceOnUse"><stop offset="0" stop-color="#fff"/><stop offset="1" stop-color="#585858"/></linearGradient><linearGradient id="linear-gradient-2" x1="687.63" y1="409.76" x2="697.77" y2="397.68" gradientTransform="translate(-225.64 -49.53)" gradientUnits="userSpaceOnUse"><stop offset="0" stop-color="#fff"/><stop offset="0.01" stop-color="#ececec"/><stop offset="0.05" stop-color="#bbb"/><stop offset="0.09" stop-color="#8e8e8e"/><stop offset="0.13" stop-color="#686868"/><stop offset="0.17" stop-color="#484848"/><stop offset="0.22" stop-color="#2d2d2d"/><stop offset="0.27" stop-color="#191919"/><stop offset="0.32" stop-color="#0b0b0b"/><stop offset="0.39" stop-color="#030303"/><stop offset="0.51"/><stop offset="0.61" stop-color="#030303"/><stop offset="0.68" stop-color="#0b0b0b"/><stop offset="0.73" stop-color="#1a1a1a"/><stop offset="0.78" stop-color="#2f2f2f"/><stop offset="0.83" stop-color="#4a4a4a"/><stop offset="0.87" stop-color="#6c6c6c"/><stop offset="0.92" stop-color="#949494"/><stop offset="0.96" stop-color="#c2c2c2"/><stop offset="0.99" stop-color="#f5f5f5"/><stop offset="1" stop-color="#fff"/></linearGradient><linearGradient id="linear-gradient-3" x1="694.58" y1="412.24" x2="700.76" y2="403.09" xlink:href="#linear-gradient-2"/><linearGradient id="linear-gradient-4" x1="705.67" y1="405.16" x2="710.31" y2="405.16" xlink:href="#linear-gradient-2"/><linearGradient id="linear-gradient-5" x1="714.78" y1="402.75" x2="717.58" y2="402.75" xlink:href="#linear-gradient-2"/><linearGradient id="linear-gradient-6" x1="714.23" y1="408.47" x2="717.81" y2="408.47" xlink:href="#linear-gradient-2"/><linearGradient id="linear-gradient-7" x1="727.63" y1="397.68" x2="729.46" y2="397.68" xlink:href="#linear-gradient-2"/><linearGradient id="linear-gradient-8" x1="727.16" y1="404.69" x2="729.72" y2="403.96" xlink:href="#linear-gradient-2"/><linearGradient id="linear-gradient-9" x1="733.61" y1="410.67" x2="741.68" y2="401.04" xlink:href="#linear-gradient-2"/><linearGradient id="linear-gradient-10" x1="739.14" y1="412.05" x2="743.49" y2="405.62" xlink:href="#linear-gradient-2"/><linearGradient id="linear-gradient-11" x1="756.7" y1="404.71" x2="756.7" y2="413.62" xlink:href="#linear-gradient-2"/><linearGradient id="linear-gradient-12" x1="748.69" y1="406.75" x2="757.91" y2="406.75" xlink:href="#linear-gradient-2"/><linearGradient id="linear-gradient-13" x1="718.79" y1="412.47" x2="722.13" y2="409.13" xlink:href="#linear-gradient-2"/></defs><title>gift product blue</title><g class="cls-2"><g id="Layer_1" data-name="Layer 1"><g class="cls-3"><rect class="cls-4" x="303.22" y="412.11" width="395.63" height="227.6" transform="translate(-412.11 698.85) rotate(-90)"/><polygon class="cls-5" points="178.36 0 0 284.31 0 0 178.36 0"/><polygon class="cls-5" points="227.6 178.36 66.11 0 227.6 0 227.6 178.36"/><polygon class="cls-5" points="49.24 396.33 227.6 112.03 227.6 396.33 49.24 396.33"/><polygon class="cls-5" points="0.23 145.28 226.81 396.18 0.23 396.18 0.23 145.28"/><g class="cls-6"><polygon class="cls-7" points="112.59 157.15 182.36 157.15 56.44 396.33 112.59 157.15"/><polygon class="cls-8" points="107.11 396.33 227.6 396.33 227.6 297.14 107.11 396.33"/><polygon class="cls-9" points="107.11 396.33 227.6 297.14 227.6 163 107.11 396.33"/><polygon class="cls-10" points="107.11 396.33 227.6 163 227.6 157.15 182.36 157.15 107.11 396.33"/><polygon class="cls-11" points="107.11 396.33 182.36 157.15 56.44 396.33 107.11 396.33"/><polygon class="cls-12" points="70.44 157.15 56.44 396.33 112.59 157.15 70.44 157.15"/><polygon class="cls-13" points="70.44 157.15 19.06 157.15 56.44 396.33 70.44 157.15"/><polygon class="cls-14" points="19.06 157.15 0 396.33 56.44 396.33 19.06 157.15"/><polygon class="cls-15" points="0 157.15 0 396.33 19.06 157.15 0 157.15"/><polygon class="cls-16" points="0 297.14 0 157.15 227.6 157.15 0 297.14"/><polygon class="cls-16" points="97.16 396.33 0 396.33 0 157.15 97.16 396.33"/><polygon class="cls-16" points="227.6 157.15 227.6 396.33 161.56 396.33 227.6 157.15"/><polygon class="cls-16" points="227.6 157.15 227.6 396.33 79.55 396.33 227.6 157.15"/><polygon class="cls-16" points="227.6 157.15 227.6 396.33 79.55 396.33 227.6 157.15"/><polygon class="cls-16" points="56.44 157.15 227.6 157.15 79.55 396.33 56.44 157.15"/><polygon class="cls-16" points="102.22 157.15 227.6 157.15 227.6 264.99 102.22 157.15"/><rect class="cls-17" x="387.24" y="485.24" width="227.6" height="239.18" transform="translate(614.83 881.58) rotate(180)"/></g></g><path class="cls-18" d="M459,433.5a21.51,21.51,0,0,1-8-1.44,17.43,17.43,0,0,1-6.2-4.14,18.36,18.36,0,0,1-4-6.59,25.88,25.88,0,0,1-1.41-8.82,26.92,26.92,0,0,1,1.3-8.59,18.61,18.61,0,0,1,3.81-6.67,17.13,17.13,0,0,1,6.15-4.31,21.22,21.22,0,0,1,8.31-1.53,23.68,23.68,0,0,1,6.93,1,16.84,16.84,0,0,1,5.47,2.76,14,14,0,0,1,3.73,4.38,15.18,15.18,0,0,1,1.73,5.83h-8.59a6.58,6.58,0,0,0-2.78-4.83,10.83,10.83,0,0,0-6.42-1.73,10.51,10.51,0,0,0-4.44.91,9.13,9.13,0,0,0-3.37,2.66,12.66,12.66,0,0,0-2.16,4.31,22.82,22.82,0,0,0,0,11.73,12.12,12.12,0,0,0,2.21,4.31,9.3,9.3,0,0,0,3.48,2.64,11.24,11.24,0,0,0,4.56.89q6.31,0,9.55-3.81v-4.6h-8.7v-6.56h17.25v21.6H472L471,429.58a14.06,14.06,0,0,1-5,2.92A21.64,21.64,0,0,1,459,433.5Z" transform="translate(-387.24 -328.09)"/><path class="cls-18" d="M494.16,432.86h-8.63V392.11h8.63Z" transform="translate(-387.24 -328.09)"/><path class="cls-18" d="M531.41,399.35h-20v10.23h17.18v7.27H511.38v16h-8.66V392.11h28.7Z" transform="translate(-387.24 -328.09)"/><path class="cls-18" d="M567.52,399.56h-12v33.3h-8.59v-33.3h-12v-7.45h32.62Z" transform="translate(-387.24 -328.09)"/><path class="cls-18" d="M456.8,642.44H445.72V606.2a39.49,39.49,0,0,1-14.33,7.27v-8.7a33.56,33.56,0,0,0,9.42-4.69,18.52,18.52,0,0,0,7-8h9Z" transform="translate(-387.24 -328.09)"/><path class="cls-18" d="M492.12,591.19q8.43,0,13.17,5.21,5.62,6.17,5.62,20.42t-5.68,20.46q-4.68,5.16-13.12,5.16t-13.58-5.64q-5.15-5.64-5.15-20.08,0-14.15,5.68-20.42Q483.74,591.19,492.12,591.19Zm0,8a6,6,0,0,0-3.55,1.1,7.29,7.29,0,0,0-2.45,4Q485,608,485,616.81T486,629q1,3.3,2.59,4.4a6,6,0,0,0,3.55,1.1,6.14,6.14,0,0,0,3.61-1.1,7.3,7.3,0,0,0,2.45-4q1.16-3.68,1.16-12.53t-1-12.12q-1-3.32-2.59-4.42A6,6,0,0,0,492.12,599.17Z" transform="translate(-387.24 -328.09)"/><path class="cls-18" d="M537.09,591.19q8.43,0,13.17,5.21,5.62,6.17,5.62,20.42t-5.68,20.46q-4.68,5.16-13.12,5.16T523.5,636.8q-5.15-5.64-5.15-20.08,0-14.15,5.68-20.42Q528.71,591.19,537.09,591.19Zm0,8a6,6,0,0,0-3.55,1.1,7.29,7.29,0,0,0-2.45,4q-1.16,3.73-1.16,12.53t1,12.14q1,3.3,2.59,4.4a6,6,0,0,0,3.55,1.1,6.14,6.14,0,0,0,3.61-1.1,7.3,7.3,0,0,0,2.45-4q1.16-3.68,1.16-12.53t-1-12.12q-1-3.32-2.59-4.42A6,6,0,0,0,537.09,599.17Z" transform="translate(-387.24 -328.09)"/><path class="cls-18" d="M579.12,631.83a5.15,5.15,0,0,1-.54,2.24,6.78,6.78,0,0,1-1.5,2,7.62,7.62,0,0,1-2.3,1.46,7.49,7.49,0,0,1-2.93.56,3.5,3.5,0,0,1-1.45-.45,7.7,7.7,0,0,1-1.8-1.29,8,8,0,0,1-1.54-2,5.28,5.28,0,0,1-.64-2.6,12.69,12.69,0,0,1,.32-2.74q.32-1.45.8-3t1-3.07q.57-1.55,1-3h-5.88v-1.86h6.43a4.5,4.5,0,0,0,.37-1.08,7.45,7.45,0,0,0,.15-1.63,4.24,4.24,0,0,0-.88-2.87,3,3,0,0,0-2.4-1,6.07,6.07,0,0,0-1.62.26,2.48,2.48,0,0,1-.39-.56,2.06,2.06,0,0,1-.2-1,2.64,2.64,0,0,1,.15-.86,4.15,4.15,0,0,1,.54-1,5.57,5.57,0,0,1,2.94.65,6.47,6.47,0,0,1,2.07,1.82,7.83,7.83,0,0,1,1.21,2.48,9.47,9.47,0,0,1,.39,2.64c0,.37,0,.73,0,1.09s0,.71,0,1h5.36V620H572q-1,2.9-1.7,4.8t-1.07,3.15a19.75,19.75,0,0,0-.55,2.07,8,8,0,0,0-.15,1.5,7,7,0,0,0,.68,3.42,2.38,2.38,0,0,0,2.25,1.2,3.77,3.77,0,0,0,2.46-.84,7,7,0,0,0,1.73-2.13,3,3,0,0,1-1.31-1,2,2,0,0,1-.18-2.07,2.59,2.59,0,0,1,.52-.76,2.78,2.78,0,0,1,.73-.52,1.86,1.86,0,0,1,.83-.2,2.48,2.48,0,0,1,1.23.3,3,3,0,0,1,.9.76,3.35,3.35,0,0,1,.56,1A3.7,3.7,0,0,1,579.12,631.83Z" transform="translate(-387.24 -328.09)"/><path class="cls-19" d="M457.06,536.07h.49v3.37h1.62v.41h-2.11Z" transform="translate(-387.24 -328.09)"/><path class="cls-19" d="M462.08,538.47a1.33,1.33,0,0,1-1.35,1.44,1.29,1.29,0,0,1-1.3-1.4,1.33,1.33,0,0,1,1.35-1.44A1.29,1.29,0,0,1,462.08,538.47Zm-2.16,0c0,.6.34,1,.83,1s.82-.44.82-1.06c0-.46-.23-1-.81-1S459.92,538,459.92,538.5Z" transform="translate(-387.24 -328.09)"/><path class="cls-19" d="M462.7,538c0-.32,0-.59,0-.85h.43l0,.53h0a.81.81,0,0,1,.75-.6l.14,0v.47l-.17,0a.69.69,0,0,0-.66.63,1.42,1.42,0,0,0,0,.23v1.45h-.49Z" transform="translate(-387.24 -328.09)"/><path class="cls-19" d="M464.76,538.58a.87.87,0,0,0,.93.94,1.78,1.78,0,0,0,.75-.14l.08.35a2.2,2.2,0,0,1-.9.17,1.26,1.26,0,0,1-1.34-1.37,1.32,1.32,0,0,1,1.27-1.47,1.15,1.15,0,0,1,1.12,1.28,1.92,1.92,0,0,1,0,.23Zm1.45-.35a.7.7,0,0,0-.68-.8.82.82,0,0,0-.76.8Z" transform="translate(-387.24 -328.09)"/><path class="cls-19" d="M467.3,537.87c0-.28,0-.51,0-.74h.43l0,.44h0a.94.94,0,0,1,.85-.5.8.8,0,0,1,.77.54h0a1.13,1.13,0,0,1,.3-.35.93.93,0,0,1,.6-.19c.36,0,.89.24.89,1.18v1.6h-.48v-1.54c0-.52-.19-.84-.59-.84a.64.64,0,0,0-.58.45.8.8,0,0,0,0,.25v1.68H469v-1.63c0-.43-.19-.75-.57-.75a.68.68,0,0,0-.61.49.7.7,0,0,0,0,.24v1.64h-.48Z" transform="translate(-387.24 -328.09)"/><path class="cls-19" d="M473.72,536.37a.31.31,0,0,1-.61,0,.3.3,0,0,1,.31-.31A.29.29,0,0,1,473.72,536.37Zm-.55,3.48v-2.72h.49v2.72Z" transform="translate(-387.24 -328.09)"/><path class="cls-19" d="M474.49,538c0-.35,0-.63,0-.89h.44l0,.47h0a1.07,1.07,0,0,1,1-.53,1.23,1.23,0,0,1,1.15,1.38,1.29,1.29,0,0,1-1.24,1.46,1,1,0,0,1-.84-.43h0V541h-.49Zm.49.72a1.14,1.14,0,0,0,0,.2.76.76,0,0,0,.74.58c.52,0,.82-.43.82-1.05s-.29-1-.81-1a.79.79,0,0,0-.75.61.81.81,0,0,0,0,.2Z" transform="translate(-387.24 -328.09)"/><path class="cls-19" d="M477.62,539.35a1.3,1.3,0,0,0,.65.2c.36,0,.53-.18.53-.4s-.14-.36-.51-.5-.72-.44-.72-.77a.84.84,0,0,1,.94-.8,1.36,1.36,0,0,1,.67.17l-.12.36a1.06,1.06,0,0,0-.56-.16c-.29,0-.46.17-.46.37s.16.33.52.46.71.42.71.82-.37.81-1,.81a1.56,1.56,0,0,1-.76-.18Z" transform="translate(-387.24 -328.09)"/><path class="cls-19" d="M482.18,539.11c0,.28,0,.53,0,.74h-.44l0-.44h0a1,1,0,0,1-.9.51c-.43,0-.94-.24-.94-1.19v-1.59h.49v1.5c0,.52.16.86.61.86a.72.72,0,0,0,.65-.45.74.74,0,0,0,0-.25v-1.67h.49Z" transform="translate(-387.24 -328.09)"/><path class="cls-19" d="M483,537.87c0-.28,0-.51,0-.74h.43l0,.44h0a.94.94,0,0,1,.85-.5.8.8,0,0,1,.77.54h0a1.13,1.13,0,0,1,.3-.35.93.93,0,0,1,.6-.19c.36,0,.89.24.89,1.18v1.6h-.48v-1.54c0-.52-.19-.84-.59-.84a.64.64,0,0,0-.58.45.8.8,0,0,0,0,.25v1.68h-.48v-1.63c0-.43-.19-.75-.57-.75a.68.68,0,0,0-.61.49.69.69,0,0,0,0,.24v1.64H483Z" transform="translate(-387.24 -328.09)"/><path class="cls-19" d="M491.23,535.87v3.29c0,.24,0,.52,0,.7h-.44l0-.47h0a1,1,0,0,1-.93.53,1.24,1.24,0,0,1-1.16-1.38,1.3,1.3,0,0,1,1.22-1.46.91.91,0,0,1,.82.42h0v-1.62Zm-.49,2.38a.85.85,0,0,0,0-.21.73.73,0,0,0-.71-.57c-.51,0-.81.45-.81,1.05s.27,1,.8,1a.74.74,0,0,0,.72-.59.84.84,0,0,0,0-.21Z" transform="translate(-387.24 -328.09)"/><path class="cls-19" d="M494.51,538.47a1.33,1.33,0,0,1-1.35,1.44,1.29,1.29,0,0,1-1.3-1.4,1.33,1.33,0,0,1,1.35-1.44A1.29,1.29,0,0,1,494.51,538.47Zm-2.16,0c0,.6.34,1,.83,1s.82-.44.82-1.06c0-.46-.23-1-.81-1S492.35,538,492.35,538.5Z" transform="translate(-387.24 -328.09)"/><path class="cls-19" d="M495.13,535.87h.49v4h-.49Z" transform="translate(-387.24 -328.09)"/><path class="cls-19" d="M498.92,538.47a1.33,1.33,0,0,1-1.35,1.44,1.29,1.29,0,0,1-1.3-1.4,1.33,1.33,0,0,1,1.35-1.44A1.29,1.29,0,0,1,498.92,538.47Zm-2.16,0c0,.6.34,1,.83,1s.82-.44.82-1.06c0-.46-.23-1-.81-1S496.76,538,496.76,538.5Z" transform="translate(-387.24 -328.09)"/><path class="cls-19" d="M499.55,538c0-.32,0-.59,0-.85H500l0,.53h0a.81.81,0,0,1,.75-.6l.14,0v.47l-.17,0a.69.69,0,0,0-.66.63,1.42,1.42,0,0,0,0,.23v1.45h-.49Z" transform="translate(-387.24 -328.09)"/><path class="cls-19" d="M502.51,539.35a1.3,1.3,0,0,0,.65.2c.36,0,.53-.18.53-.4s-.14-.36-.51-.5-.72-.44-.72-.77a.84.84,0,0,1,.94-.8,1.36,1.36,0,0,1,.67.17l-.12.36a1.06,1.06,0,0,0-.56-.16c-.29,0-.46.17-.46.37s.16.33.52.46.71.42.71.82-.37.81-1,.81a1.56,1.56,0,0,1-.76-.18Z" transform="translate(-387.24 -328.09)"/><path class="cls-19" d="M505.35,536.37a.31.31,0,0,1-.61,0,.3.3,0,0,1,.31-.31A.29.29,0,0,1,505.35,536.37Zm-.55,3.48v-2.72h.49v2.72Z" transform="translate(-387.24 -328.09)"/><path class="cls-19" d="M506.71,536.36v.78h.71v.38h-.71V539c0,.34.1.53.37.53a1.1,1.1,0,0,0,.29,0l0,.37a1.2,1.2,0,0,1-.44.07.68.68,0,0,1-.53-.21,1,1,0,0,1-.19-.71v-1.48h-.42v-.38h.42v-.65Z" transform="translate(-387.24 -328.09)"/><path class="cls-19" d="M510.67,539.85l0-.34h0a1,1,0,0,1-.83.4.77.77,0,0,1-.83-.78c0-.66.58-1,1.63-1v-.06a.56.56,0,0,0-.62-.63,1.35,1.35,0,0,0-.71.2l-.11-.33a1.69,1.69,0,0,1,.89-.24c.83,0,1,.57,1,1.11v1a3.8,3.8,0,0,0,0,.65Zm-.07-1.39c-.54,0-1.15.08-1.15.61a.44.44,0,0,0,.47.47.68.68,0,0,0,.66-.45.5.5,0,0,0,0-.16Z" transform="translate(-387.24 -328.09)"/><path class="cls-19" d="M511.87,537.87c0-.28,0-.51,0-.74h.43l0,.44h0a.94.94,0,0,1,.85-.5.8.8,0,0,1,.77.54h0a1.13,1.13,0,0,1,.3-.35.93.93,0,0,1,.6-.19c.36,0,.89.24.89,1.18v1.6h-.48v-1.54c0-.52-.19-.84-.59-.84a.64.64,0,0,0-.58.45.8.8,0,0,0,0,.25v1.68h-.48v-1.63c0-.43-.19-.75-.57-.75a.68.68,0,0,0-.61.49.7.7,0,0,0,0,.24v1.64h-.48Z" transform="translate(-387.24 -328.09)"/><path class="cls-19" d="M516.83,538.58a.87.87,0,0,0,.93.94,1.78,1.78,0,0,0,.75-.14l.08.35a2.2,2.2,0,0,1-.9.17,1.26,1.26,0,0,1-1.34-1.37,1.32,1.32,0,0,1,1.27-1.47,1.15,1.15,0,0,1,1.12,1.28,1.89,1.89,0,0,1,0,.23Zm1.45-.35a.7.7,0,0,0-.68-.8.82.82,0,0,0-.76.8Z" transform="translate(-387.24 -328.09)"/><path class="cls-19" d="M520,536.36v.78h.71v.38H520V539c0,.34.1.53.37.53a1.1,1.1,0,0,0,.29,0l0,.37a1.2,1.2,0,0,1-.44.07.68.68,0,0,1-.53-.21,1,1,0,0,1-.19-.71v-1.48h-.42v-.38h.42v-.65Z" transform="translate(-387.24 -328.09)"/><path class="cls-19" d="M520.89,540.54a8.12,8.12,0,0,0,.34-1.34l.55-.06a6.82,6.82,0,0,1-.53,1.36Z" transform="translate(-387.24 -328.09)"/><path class="cls-19" d="M525.42,539.43h0a1,1,0,0,1-.89.48,1.24,1.24,0,0,1-1.15-1.38,1.3,1.3,0,0,1,1.23-1.47.89.89,0,0,1,.84.47h0l0-.41h.47c0,.23,0,.47,0,.75V541h-.49Zm0-1.2a.81.81,0,0,0,0-.21.72.72,0,0,0-.71-.56c-.51,0-.82.43-.82,1s.26,1,.8,1a.74.74,0,0,0,.71-.54.85.85,0,0,0,0-.24Z" transform="translate(-387.24 -328.09)"/><path class="cls-19" d="M529,539.11c0,.28,0,.53,0,.74h-.44l0-.44h0a1,1,0,0,1-.9.51c-.43,0-.94-.24-.94-1.19v-1.59h.49v1.5c0,.52.16.86.61.86a.72.72,0,0,0,.65-.45.74.74,0,0,0,0-.25v-1.67H529Z" transform="translate(-387.24 -328.09)"/><path class="cls-19" d="M532.29,538.47a1.33,1.33,0,0,1-1.35,1.44,1.29,1.29,0,0,1-1.3-1.4,1.33,1.33,0,0,1,1.35-1.44A1.29,1.29,0,0,1,532.29,538.47Zm-2.16,0c0,.6.34,1,.83,1s.82-.44.82-1.06c0-.46-.23-1-.81-1S530.13,538,530.13,538.5Z" transform="translate(-387.24 -328.09)"/><path class="cls-19" d="M534.38,538.58a.87.87,0,0,0,.93.94,1.79,1.79,0,0,0,.75-.14l.08.35a2.2,2.2,0,0,1-.9.17,1.26,1.26,0,0,1-1.34-1.37,1.32,1.32,0,0,1,1.27-1.47,1.15,1.15,0,0,1,1.12,1.28,1.89,1.89,0,0,1,0,.23Zm1.45-.35a.7.7,0,0,0-.68-.8.82.82,0,0,0-.76.8Z" transform="translate(-387.24 -328.09)"/><path class="cls-19" d="M537.51,536.36v.78h.71v.38h-.71V539c0,.34.1.53.37.53a1.1,1.1,0,0,0,.29,0l0,.37a1.2,1.2,0,0,1-.44.07.68.68,0,0,1-.53-.21A1,1,0,0,1,537,539v-1.48h-.42v-.38H537v-.65Z" transform="translate(-387.24 -328.09)"/><path class="cls-19" d="M540,537.87c0-.28,0-.51,0-.74h.43l0,.44h0a.94.94,0,0,1,.85-.5.8.8,0,0,1,.77.54h0a1.13,1.13,0,0,1,.3-.35.93.93,0,0,1,.6-.19c.36,0,.89.24.89,1.18v1.6h-.48v-1.54c0-.52-.19-.84-.59-.84a.64.64,0,0,0-.58.45.8.8,0,0,0,0,.25v1.68h-.48v-1.63c0-.43-.19-.75-.57-.75a.68.68,0,0,0-.61.49.7.7,0,0,0,0,.24v1.64H540Z" transform="translate(-387.24 -328.09)"/><path class="cls-19" d="M546.16,539.85l0-.34h0a1,1,0,0,1-.83.4.77.77,0,0,1-.83-.78c0-.66.58-1,1.63-1v-.06a.56.56,0,0,0-.62-.63,1.35,1.35,0,0,0-.71.2l-.11-.33a1.69,1.69,0,0,1,.89-.24c.83,0,1,.57,1,1.11v1a3.82,3.82,0,0,0,0,.65Zm-.07-1.39c-.54,0-1.15.08-1.15.61a.44.44,0,0,0,.47.47.68.68,0,0,0,.66-.45.5.5,0,0,0,0-.16Z" transform="translate(-387.24 -328.09)"/><path class="cls-19" d="M547.05,539.57l1.23-1.6.35-.42h-1.47v-.4h2.07v.31L548,539c-.11.15-.22.29-.35.43h1.59v.39h-2.21Z" transform="translate(-387.24 -328.09)"/><path class="cls-19" d="M550.32,536.37a.31.31,0,0,1-.61,0,.3.3,0,0,1,.31-.31A.29.29,0,0,1,550.32,536.37Zm-.55,3.48v-2.72h.49v2.72Z" transform="translate(-387.24 -328.09)"/><path class="cls-19" d="M551.08,537.87c0-.28,0-.51,0-.74h.43l0,.44h0a.94.94,0,0,1,.85-.5.8.8,0,0,1,.77.54h0a1.13,1.13,0,0,1,.3-.35.93.93,0,0,1,.6-.19c.36,0,.89.24.89,1.18v1.6h-.48v-1.54c0-.52-.19-.84-.59-.84a.64.64,0,0,0-.58.45.8.8,0,0,0,0,.25v1.68h-.48v-1.63c0-.43-.19-.75-.57-.75a.68.68,0,0,0-.61.49.69.69,0,0,0,0,.24v1.64h-.48Z" transform="translate(-387.24 -328.09)"/><path class="cls-19" d="M557.51,536.37a.31.31,0,0,1-.61,0,.3.3,0,0,1,.31-.31A.29.29,0,0,1,557.51,536.37Zm-.55,3.48v-2.72h.49v2.72Z" transform="translate(-387.24 -328.09)"/><path class="cls-19" d="M558.27,537.87c0-.28,0-.51,0-.74h.44l0,.45h0a1,1,0,0,1,.9-.51c.38,0,1,.22,1,1.16v1.62h-.49v-1.57c0-.44-.16-.8-.63-.8a.7.7,0,0,0-.66.51.73.73,0,0,0,0,.23v1.63h-.49Z" transform="translate(-387.24 -328.09)"/><path class="cls-19" d="M457.59,543.11a.31.31,0,0,1-.61,0,.3.3,0,0,1,.31-.31A.29.29,0,0,1,457.59,543.11ZM457,546.6v-2.72h.49v2.72Z" transform="translate(-387.24 -328.09)"/><path class="cls-19" d="M458.59,543.88l.39.58c.1.15.18.29.28.44h0c.09-.16.18-.3.27-.45l.38-.58h.53l-.93,1.31,1,1.4h-.56l-.4-.61c-.11-.16-.2-.31-.29-.47h0c-.09.16-.19.31-.29.47l-.39.61H458l1-1.39-.92-1.33Z" transform="translate(-387.24 -328.09)"/><path class="cls-19" d="M462.42,545.33a.87.87,0,0,0,.93.94,1.78,1.78,0,0,0,.75-.14l.08.35a2.2,2.2,0,0,1-.9.17,1.26,1.26,0,0,1-1.34-1.37,1.32,1.32,0,0,1,1.27-1.47,1.15,1.15,0,0,1,1.12,1.28,1.9,1.9,0,0,1,0,.23Zm1.45-.35a.7.7,0,0,0-.68-.8.82.82,0,0,0-.76.8Z" transform="translate(-387.24 -328.09)"/><path class="cls-19" d="M465.51,543.11a.31.31,0,0,1-.61,0,.3.3,0,0,1,.31-.31A.29.29,0,0,1,465.51,543.11ZM465,546.6v-2.72h.49v2.72Z" transform="translate(-387.24 -328.09)"/><path class="cls-19" d="M468,543.11a.31.31,0,0,1-.61,0,.3.3,0,0,1,.31-.31A.29.29,0,0,1,468,543.11Zm-.55,3.48v-2.72H468v2.72Z" transform="translate(-387.24 -328.09)"/><path class="cls-19" d="M471.13,542.61v3.28c0,.24,0,.52,0,.7h-.44l0-.47h0a1,1,0,0,1-.93.53,1.24,1.24,0,0,1-1.16-1.38,1.3,1.3,0,0,1,1.22-1.46.91.91,0,0,1,.82.42h0v-1.62Zm-.49,2.38a.85.85,0,0,0,0-.21.73.73,0,0,0-.71-.57c-.51,0-.81.45-.81,1s.27,1,.8,1a.74.74,0,0,0,.72-.59.84.84,0,0,0,0-.21Z" transform="translate(-387.24 -328.09)"/><path class="cls-19" d="M473.81,546.17h0a1,1,0,0,1-.89.48,1.24,1.24,0,0,1-1.15-1.38,1.3,1.3,0,0,1,1.23-1.47.89.89,0,0,1,.84.47h0l0-.41h.47c0,.23,0,.47,0,.75v3.08h-.49Zm0-1.2a.82.82,0,0,0,0-.21.72.72,0,0,0-.71-.56c-.51,0-.82.43-.82,1s.26,1,.8,1a.74.74,0,0,0,.71-.54.84.84,0,0,0,0-.24Z" transform="translate(-387.24 -328.09)"/><path class="cls-19" d="M477.39,545.85c0,.28,0,.53,0,.74H477l0-.44h0a1,1,0,0,1-.9.51c-.43,0-.94-.24-.94-1.19v-1.59h.49v1.51c0,.52.16.86.61.86a.71.71,0,0,0,.65-.45.74.74,0,0,0,0-.25v-1.67h.49Z" transform="translate(-387.24 -328.09)"/><path class="cls-19" d="M478.49,545.33a.87.87,0,0,0,.93.94,1.79,1.79,0,0,0,.75-.14l.08.35a2.2,2.2,0,0,1-.9.17,1.26,1.26,0,0,1-1.34-1.37,1.32,1.32,0,0,1,1.27-1.47,1.15,1.15,0,0,1,1.12,1.28,1.89,1.89,0,0,1,0,.23Zm1.45-.35a.7.7,0,0,0-.68-.8.82.82,0,0,0-.76.8Z" transform="translate(-387.24 -328.09)"/><path class="cls-19" d="M482.77,543.11a.31.31,0,0,1-.61,0,.3.3,0,0,1,.31-.31A.29.29,0,0,1,482.77,543.11Zm-.55,3.48v-2.72h.49v2.72Z" transform="translate(-387.24 -328.09)"/><path class="cls-19" d="M483.53,544.61c0-.28,0-.51,0-.74h.44l0,.45h0a1,1,0,0,1,.9-.51c.38,0,1,.22,1,1.16v1.62h-.49V545c0-.44-.16-.8-.63-.8a.7.7,0,0,0-.66.5.73.73,0,0,0,0,.23v1.63h-.49Z" transform="translate(-387.24 -328.09)"/><path class="cls-19" d="M487.22,543.1v.78h.71v.38h-.71v1.47c0,.34.1.53.37.53a1.08,1.08,0,0,0,.29,0l0,.37a1.21,1.21,0,0,1-.44.07.68.68,0,0,1-.53-.21,1,1,0,0,1-.19-.71v-1.48h-.42v-.38h.42v-.65Z" transform="translate(-387.24 -328.09)"/><path class="cls-19" d="M488.73,545.33a.87.87,0,0,0,.93.94,1.79,1.79,0,0,0,.75-.14l.08.35a2.2,2.2,0,0,1-.9.17,1.26,1.26,0,0,1-1.34-1.37,1.32,1.32,0,0,1,1.27-1.47,1.15,1.15,0,0,1,1.12,1.28,1.91,1.91,0,0,1,0,.23Zm1.45-.35a.7.7,0,0,0-.69-.8.82.82,0,0,0-.76.8Z" transform="translate(-387.24 -328.09)"/><path class="cls-19" d="M491.27,542.61h.49v4h-.49Z" transform="translate(-387.24 -328.09)"/><path class="cls-19" d="M492.59,542.61h.49v4h-.49Z" transform="translate(-387.24 -328.09)"/><path class="cls-19" d="M494.2,545.33a.87.87,0,0,0,.93.94,1.79,1.79,0,0,0,.75-.14l.08.35a2.2,2.2,0,0,1-.9.17,1.26,1.26,0,0,1-1.34-1.37,1.32,1.32,0,0,1,1.27-1.47,1.15,1.15,0,0,1,1.12,1.28,1.91,1.91,0,0,1,0,.23Zm1.45-.35a.7.7,0,0,0-.68-.8.82.82,0,0,0-.76.8Z" transform="translate(-387.24 -328.09)"/><path class="cls-19" d="M499.08,543.88c0,.2,0,.42,0,.75v1.58a1.56,1.56,0,0,1-.39,1.24,1.44,1.44,0,0,1-1,.33,1.76,1.76,0,0,1-.9-.22l.12-.38a1.53,1.53,0,0,0,.8.21c.51,0,.88-.26.88-.95v-.3h0a1,1,0,0,1-.87.46,1.22,1.22,0,0,1-1.16-1.32,1.3,1.3,0,0,1,1.22-1.44.9.9,0,0,1,.85.47h0l0-.41Zm-.51,1.07a.7.7,0,0,0,0-.22.71.71,0,0,0-.69-.52c-.47,0-.81.4-.81,1s.27,1,.8,1a.72.72,0,0,0,.68-.5.85.85,0,0,0,0-.26Z" transform="translate(-387.24 -328.09)"/><path class="cls-19" d="M501.38,546.6l0-.34h0a1,1,0,0,1-.83.41.77.77,0,0,1-.83-.78c0-.66.58-1,1.63-1v-.06a.56.56,0,0,0-.62-.63,1.34,1.34,0,0,0-.71.2l-.11-.33a1.69,1.69,0,0,1,.89-.24c.83,0,1,.57,1,1.11v1a3.81,3.81,0,0,0,0,.65Zm-.07-1.39c-.54,0-1.15.08-1.15.61a.44.44,0,0,0,.47.47.67.67,0,0,0,.66-.45.5.5,0,0,0,0-.16Z" transform="translate(-387.24 -328.09)"/><path class="cls-19" d="M503.16,543.1v.78h.71v.38h-.71v1.47c0,.34.1.53.37.53a1.08,1.08,0,0,0,.29,0l0,.37a1.21,1.21,0,0,1-.44.07.68.68,0,0,1-.53-.21,1,1,0,0,1-.19-.71v-1.48h-.42v-.38h.42v-.65Z" transform="translate(-387.24 -328.09)"/><path class="cls-19" d="M505.61,544.73c0-.32,0-.6,0-.85H506l0,.53h0a.82.82,0,0,1,.75-.6l.14,0v.47l-.17,0a.69.69,0,0,0-.66.63,1.43,1.43,0,0,0,0,.23v1.45h-.49Z" transform="translate(-387.24 -328.09)"/><path class="cls-19" d="M507.67,545.33a.87.87,0,0,0,.93.94,1.79,1.79,0,0,0,.75-.14l.08.35a2.2,2.2,0,0,1-.9.17,1.26,1.26,0,0,1-1.34-1.37,1.32,1.32,0,0,1,1.27-1.47,1.15,1.15,0,0,1,1.12,1.28,1.88,1.88,0,0,1,0,.23Zm1.45-.35a.7.7,0,0,0-.68-.8.82.82,0,0,0-.76.8Z" transform="translate(-387.24 -328.09)"/><path class="cls-19" d="M510.26,546.6v-2.34h-.38v-.38h.38v-.13a1.28,1.28,0,0,1,.31-.95.94.94,0,0,1,.66-.25,1.15,1.15,0,0,1,.42.08l-.07.38a.74.74,0,0,0-.31-.06c-.42,0-.53.37-.53.79v.15h.66v.38h-.66v2.34Z" transform="translate(-387.24 -328.09)"/><path class="cls-19" d="M512.05,545.33a.87.87,0,0,0,.93.94,1.79,1.79,0,0,0,.75-.14l.08.35a2.2,2.2,0,0,1-.9.17,1.26,1.26,0,0,1-1.34-1.37,1.32,1.32,0,0,1,1.27-1.47A1.15,1.15,0,0,1,514,545.1a1.89,1.89,0,0,1,0,.23Zm1.45-.35a.7.7,0,0,0-.68-.8.82.82,0,0,0-.76.8Z" transform="translate(-387.24 -328.09)"/><path class="cls-19" d="M514.59,544.73c0-.32,0-.6,0-.85H515l0,.53h0a.81.81,0,0,1,.75-.6l.14,0v.47l-.17,0a.69.69,0,0,0-.66.63,1.43,1.43,0,0,0,0,.23v1.45h-.49Z" transform="translate(-387.24 -328.09)"/><path class="cls-19" d="M516.45,544.73c0-.32,0-.6,0-.85h.43l0,.53h0a.82.82,0,0,1,.75-.6l.14,0v.47l-.17,0a.69.69,0,0,0-.66.63,1.41,1.41,0,0,0,0,.23v1.45h-.49Z" transform="translate(-387.24 -328.09)"/><path class="cls-19" d="M518.51,545.33a.87.87,0,0,0,.93.94,1.78,1.78,0,0,0,.75-.14l.08.35a2.2,2.2,0,0,1-.9.17,1.26,1.26,0,0,1-1.34-1.37,1.32,1.32,0,0,1,1.27-1.47,1.15,1.15,0,0,1,1.12,1.28,1.88,1.88,0,0,1,0,.23ZM520,545a.7.7,0,0,0-.68-.8.82.82,0,0,0-.76.8Z" transform="translate(-387.24 -328.09)"/><path class="cls-19" d="M521,544.61c0-.28,0-.51,0-.74h.44l0,.45h0a1,1,0,0,1,.9-.51c.38,0,1,.22,1,1.16v1.62h-.49V545c0-.44-.16-.8-.63-.8a.7.7,0,0,0-.66.5.73.73,0,0,0,0,.23v1.63H521Z" transform="translate(-387.24 -328.09)"/><path class="cls-19" d="M524.74,543.1v.78h.71v.38h-.71v1.47c0,.34.1.53.37.53a1.08,1.08,0,0,0,.29,0l0,.37a1.21,1.21,0,0,1-.44.07.68.68,0,0,1-.53-.21,1,1,0,0,1-.19-.71v-1.48h-.42v-.38h.42v-.65Z" transform="translate(-387.24 -328.09)"/><path class="cls-19" d="M528.28,545.85c0,.28,0,.53,0,.74h-.44l0-.44h0a1,1,0,0,1-.9.51c-.43,0-.94-.24-.94-1.19v-1.59h.49v1.51c0,.52.16.86.61.86a.71.71,0,0,0,.65-.45.74.74,0,0,0,0-.25v-1.67h.49Z" transform="translate(-387.24 -328.09)"/><path class="cls-19" d="M529.1,544.73c0-.32,0-.6,0-.85h.43l0,.53h0a.81.81,0,0,1,.75-.6l.14,0v.47l-.17,0a.69.69,0,0,0-.66.63,1.42,1.42,0,0,0,0,.23v1.45h-.49Z" transform="translate(-387.24 -328.09)"/><path class="cls-19" d="M530.52,546.3a.33.33,0,0,1,.34-.35.35.35,0,0,1,0,.71A.33.33,0,0,1,530.52,546.3Z" transform="translate(-387.24 -328.09)"/><path class="cls-19" d="M532.94,546a1.74,1.74,0,0,0,.88.25c.5,0,.79-.26.79-.65s-.2-.56-.71-.75-1-.54-1-1.07a1.09,1.09,0,0,1,1.22-1,1.72,1.72,0,0,1,.84.18l-.13.4a1.51,1.51,0,0,0-.72-.18c-.52,0-.71.31-.71.57s.23.53.75.73,1,.56,1,1.11-.43,1.09-1.32,1.09a2,2,0,0,1-1-.24Z" transform="translate(-387.24 -328.09)"/><path class="cls-19" d="M538,545.85c0,.28,0,.53,0,.74h-.44l0-.44h0a1,1,0,0,1-.9.51c-.43,0-.94-.24-.94-1.19v-1.59h.49v1.51c0,.52.16.86.61.86a.71.71,0,0,0,.65-.45.74.74,0,0,0,0-.25v-1.67H538Z" transform="translate(-387.24 -328.09)"/><path class="cls-19" d="M540.36,546.6l0-.34h0a1,1,0,0,1-.83.41.77.77,0,0,1-.83-.78c0-.66.58-1,1.63-1v-.06a.56.56,0,0,0-.62-.63,1.34,1.34,0,0,0-.71.2l-.11-.33a1.69,1.69,0,0,1,.89-.24c.83,0,1,.57,1,1.11v1a3.81,3.81,0,0,0,0,.65Zm-.07-1.39c-.54,0-1.15.08-1.15.61a.44.44,0,0,0,.47.47.67.67,0,0,0,.66-.45.5.5,0,0,0,0-.16Z" transform="translate(-387.24 -328.09)"/><path class="cls-19" d="M541.5,546.09a1.29,1.29,0,0,0,.65.2c.36,0,.53-.18.53-.4s-.14-.37-.51-.5-.72-.44-.72-.77a.84.84,0,0,1,.94-.8,1.35,1.35,0,0,1,.67.17l-.12.36a1.06,1.06,0,0,0-.56-.16c-.29,0-.46.17-.46.37s.16.33.52.46.71.42.71.82-.37.81-1,.81a1.55,1.55,0,0,1-.76-.18Z" transform="translate(-387.24 -328.09)"/><path class="cls-19" d="M547.33,542.61v3.28c0,.24,0,.52,0,.7h-.44l0-.47h0a1,1,0,0,1-.93.53,1.24,1.24,0,0,1-1.16-1.38,1.3,1.3,0,0,1,1.22-1.46.91.91,0,0,1,.82.42h0v-1.62Zm-.49,2.38a.85.85,0,0,0,0-.21.73.73,0,0,0-.71-.57c-.51,0-.81.45-.81,1s.27,1,.8,1a.74.74,0,0,0,.72-.59.84.84,0,0,0,0-.21Z" transform="translate(-387.24 -328.09)"/><path class="cls-19" d="M548.42,545.33a.87.87,0,0,0,.93.94,1.79,1.79,0,0,0,.75-.14l.08.35a2.2,2.2,0,0,1-.9.17,1.26,1.26,0,0,1-1.34-1.37,1.32,1.32,0,0,1,1.27-1.47,1.15,1.15,0,0,1,1.12,1.28,1.91,1.91,0,0,1,0,.23Zm1.45-.35a.7.7,0,0,0-.69-.8.82.82,0,0,0-.76.8Z" transform="translate(-387.24 -328.09)"/><path class="cls-19" d="M551.56,543.1v.78h.71v.38h-.71v1.47c0,.34.1.53.37.53a1.08,1.08,0,0,0,.29,0l0,.37a1.21,1.21,0,0,1-.44.07.68.68,0,0,1-.53-.21,1,1,0,0,1-.19-.71v-1.48h-.42v-.38h.42v-.65Z" transform="translate(-387.24 -328.09)"/><path class="cls-19" d="M553.06,545.33a.87.87,0,0,0,.93.94,1.79,1.79,0,0,0,.75-.14l.08.35a2.2,2.2,0,0,1-.9.17,1.26,1.26,0,0,1-1.34-1.37,1.32,1.32,0,0,1,1.27-1.47A1.15,1.15,0,0,1,555,545.1a1.9,1.9,0,0,1,0,.23Zm1.45-.35a.7.7,0,0,0-.68-.8.82.82,0,0,0-.76.8Z" transform="translate(-387.24 -328.09)"/><path class="cls-19" d="M555.6,544.73c0-.32,0-.6,0-.85H556l0,.53h0a.81.81,0,0,1,.75-.6l.14,0v.47l-.17,0a.69.69,0,0,0-.66.63,1.41,1.41,0,0,0,0,.23v1.45h-.49Z" transform="translate(-387.24 -328.09)"/><path class="cls-19" d="M557.46,544.73c0-.32,0-.6,0-.85h.43l0,.53h0a.82.82,0,0,1,.75-.6l.14,0v.47l-.17,0a.69.69,0,0,0-.66.63,1.43,1.43,0,0,0,0,.23v1.45h-.49Z" transform="translate(-387.24 -328.09)"/><path class="cls-19" d="M459.32,552.6c0,.28,0,.53,0,.74h-.44l0-.44h0a1,1,0,0,1-.9.51c-.43,0-.94-.24-.94-1.19v-1.59h.49v1.51c0,.52.16.86.61.86a.71.71,0,0,0,.65-.45.74.74,0,0,0,0-.25v-1.67h.49Z" transform="translate(-387.24 -328.09)"/><path class="cls-19" d="M460.14,551.47c0-.32,0-.6,0-.85h.43l0,.53h0a.82.82,0,0,1,.75-.6l.14,0V551l-.17,0a.69.69,0,0,0-.66.63,1.43,1.43,0,0,0,0,.23v1.45h-.49Z" transform="translate(-387.24 -328.09)"/><path class="cls-19" d="M462.55,549.86a.31.31,0,0,1-.61,0,.3.3,0,0,1,.31-.31A.29.29,0,0,1,462.55,549.86Zm-.55,3.48v-2.72h.49v2.72Z" transform="translate(-387.24 -328.09)"/><path class="cls-19" d="M466.85,549.35v3.28c0,.24,0,.52,0,.7h-.44l0-.47h0a1,1,0,0,1-.93.53,1.24,1.24,0,0,1-1.16-1.38,1.3,1.3,0,0,1,1.22-1.46.91.91,0,0,1,.82.42h0v-1.62Zm-.49,2.38a.85.85,0,0,0,0-.21.73.73,0,0,0-.71-.57c-.51,0-.81.45-.81,1s.27,1,.8,1a.74.74,0,0,0,.72-.59.84.84,0,0,0,0-.21Z" transform="translate(-387.24 -328.09)"/><path class="cls-19" d="M468.22,549.86a.31.31,0,0,1-.61,0,.3.3,0,0,1,.31-.31A.29.29,0,0,1,468.22,549.86Zm-.55,3.48v-2.72h.49v2.72Z" transform="translate(-387.24 -328.09)"/><path class="cls-19" d="M468.92,552.83a1.29,1.29,0,0,0,.65.2c.36,0,.53-.18.53-.4s-.14-.37-.51-.5-.72-.44-.72-.77a.84.84,0,0,1,.94-.8,1.35,1.35,0,0,1,.67.17l-.12.36a1.06,1.06,0,0,0-.56-.16c-.29,0-.46.17-.46.37s.16.33.52.46.71.42.71.82-.37.81-1,.81a1.55,1.55,0,0,1-.76-.18Z" transform="translate(-387.24 -328.09)"/><path class="cls-19" d="M471.21,551.51c0-.35,0-.63,0-.89h.44l0,.47h0a1.07,1.07,0,0,1,1-.53,1.23,1.23,0,0,1,1.15,1.38,1.29,1.29,0,0,1-1.24,1.46,1,1,0,0,1-.84-.43h0v1.48h-.49Zm.49.72a1.14,1.14,0,0,0,0,.2.76.76,0,0,0,.74.58c.52,0,.82-.43.82-1s-.29-1-.81-1a.79.79,0,0,0-.75.61.81.81,0,0,0,0,.2Z" transform="translate(-387.24 -328.09)"/><path class="cls-19" d="M476.68,552.6c0,.28,0,.53,0,.74h-.44l0-.44h0a1,1,0,0,1-.9.51c-.43,0-.94-.24-.94-1.19v-1.59h.49v1.51c0,.52.16.86.61.86a.71.71,0,0,0,.65-.45.74.74,0,0,0,0-.25v-1.67h.49Z" transform="translate(-387.24 -328.09)"/><path class="cls-19" d="M478.1,549.84v.78h.71V551h-.71v1.47c0,.34.1.53.37.53a1.07,1.07,0,0,0,.29,0l0,.37a1.21,1.21,0,0,1-.44.07.68.68,0,0,1-.53-.21,1,1,0,0,1-.19-.71V551h-.42v-.38h.42V550Z" transform="translate(-387.24 -328.09)"/><path class="cls-19" d="M480.87,553.34l0-.34h0a1,1,0,0,1-.83.41.77.77,0,0,1-.83-.78c0-.66.58-1,1.63-1v-.06a.56.56,0,0,0-.62-.63,1.35,1.35,0,0,0-.71.2l-.11-.33a1.69,1.69,0,0,1,.89-.24c.83,0,1,.57,1,1.11v1a3.82,3.82,0,0,0,0,.65ZM480.8,552c-.54,0-1.15.08-1.15.61a.44.44,0,0,0,.47.47.68.68,0,0,0,.66-.45.5.5,0,0,0,0-.16Z" transform="translate(-387.24 -328.09)"/><path class="cls-19" d="M482.07,551.36c0-.28,0-.51,0-.74h.44l0,.45h0a1,1,0,0,1,.9-.51c.38,0,1,.22,1,1.16v1.62h-.49v-1.57c0-.44-.16-.8-.63-.8a.7.7,0,0,0-.66.5.73.73,0,0,0,0,.23v1.63h-.49Z" transform="translate(-387.24 -328.09)"/><path class="cls-19" d="M487.54,549.35v3.28c0,.24,0,.52,0,.7h-.44l0-.47h0a1,1,0,0,1-.93.53A1.24,1.24,0,0,1,485,552a1.3,1.3,0,0,1,1.22-1.46.91.91,0,0,1,.82.42h0v-1.62Zm-.49,2.38a.85.85,0,0,0,0-.21.73.73,0,0,0-.71-.57c-.51,0-.81.45-.81,1s.27,1,.8,1a.74.74,0,0,0,.72-.59.84.84,0,0,0,0-.21Z" transform="translate(-387.24 -328.09)"/><path class="cls-19" d="M490.82,552a1.33,1.33,0,0,1-1.35,1.44,1.29,1.29,0,0,1-1.3-1.4,1.33,1.33,0,0,1,1.35-1.44A1.29,1.29,0,0,1,490.82,552Zm-2.16,0c0,.6.34,1,.83,1s.82-.44.82-1.06c0-.46-.23-1-.81-1S488.66,551.47,488.66,552Z" transform="translate(-387.24 -328.09)"/><path class="cls-19" d="M492.91,552.07a.87.87,0,0,0,.93.94,1.78,1.78,0,0,0,.75-.14l.08.35a2.2,2.2,0,0,1-.9.17,1.26,1.26,0,0,1-1.34-1.37,1.32,1.32,0,0,1,1.27-1.47,1.15,1.15,0,0,1,1.12,1.28,1.92,1.92,0,0,1,0,.23Zm1.45-.35a.7.7,0,0,0-.68-.8.82.82,0,0,0-.76.8Z" transform="translate(-387.24 -328.09)"/><path class="cls-19" d="M495.66,550.62l.39.58c.1.15.18.29.28.44h0c.09-.16.18-.3.27-.45l.38-.58h.53l-.93,1.31,1,1.4H497l-.4-.61c-.11-.16-.2-.31-.29-.47h0c-.09.16-.19.31-.29.47l-.39.61h-.55l1-1.39-.92-1.33Z" transform="translate(-387.24 -328.09)"/><path class="cls-19" d="M501.5,552.6c0,.28,0,.53,0,.74h-.44l0-.44h0a1,1,0,0,1-.9.51c-.43,0-.94-.24-.94-1.19v-1.59h.49v1.51c0,.52.16.86.61.86a.71.71,0,0,0,.65-.45.74.74,0,0,0,0-.25v-1.67h.49Z" transform="translate(-387.24 -328.09)"/><path class="cls-19" d="M502.25,552.83a1.29,1.29,0,0,0,.65.2c.36,0,.53-.18.53-.4s-.14-.37-.51-.5-.72-.44-.72-.77a.84.84,0,0,1,.94-.8,1.35,1.35,0,0,1,.67.17l-.12.36a1.06,1.06,0,0,0-.56-.16c-.29,0-.46.17-.46.37s.16.33.52.46.71.42.71.82-.37.81-1,.81a1.55,1.55,0,0,1-.76-.18Z" transform="translate(-387.24 -328.09)"/><path class="cls-19" d="M506.82,552.6c0,.28,0,.53,0,.74h-.44l0-.44h0a1,1,0,0,1-.9.51c-.43,0-.94-.24-.94-1.19v-1.59H505v1.51c0,.52.16.86.61.86a.71.71,0,0,0,.65-.45.74.74,0,0,0,0-.25v-1.67h.49Z" transform="translate(-387.24 -328.09)"/><path class="cls-19" d="M507.48,553a.33.33,0,0,1,.34-.35.35.35,0,0,1,0,.71A.33.33,0,0,1,507.48,553Z" transform="translate(-387.24 -328.09)"/><path class="cls-19" d="M510.74,549.55h.49v2.53c0,1-.49,1.31-1.14,1.31a1.56,1.56,0,0,1-.52-.09l.07-.4a1.17,1.17,0,0,0,.41.07c.44,0,.7-.2.7-.94Z" transform="translate(-387.24 -328.09)"/><path class="cls-19" d="M514.3,552.6c0,.28,0,.53,0,.74h-.44l0-.44h0a1,1,0,0,1-.9.51c-.43,0-.94-.24-.94-1.19v-1.59h.49v1.51c0,.52.16.86.61.86a.71.71,0,0,0,.65-.45.74.74,0,0,0,0-.25v-1.67h.49Z" transform="translate(-387.24 -328.09)"/><path class="cls-19" d="M515.06,552.83a1.29,1.29,0,0,0,.65.2c.36,0,.53-.18.53-.4s-.14-.37-.51-.5-.72-.44-.72-.77a.84.84,0,0,1,.94-.8,1.35,1.35,0,0,1,.67.17l-.12.36a1.06,1.06,0,0,0-.56-.16c-.29,0-.46.17-.46.37s.16.33.52.46.71.42.71.82-.37.81-1,.81a1.55,1.55,0,0,1-.76-.18Z" transform="translate(-387.24 -328.09)"/><path class="cls-19" d="M517.94,549.84v.78h.71V551h-.71v1.47c0,.34.1.53.37.53a1.07,1.07,0,0,0,.29,0l0,.37a1.21,1.21,0,0,1-.44.07.68.68,0,0,1-.53-.21,1,1,0,0,1-.19-.71V551H517v-.38h.42V550Z" transform="translate(-387.24 -328.09)"/><path class="cls-19" d="M521.64,552a1.33,1.33,0,0,1-1.35,1.44A1.29,1.29,0,0,1,519,552a1.33,1.33,0,0,1,1.35-1.44A1.29,1.29,0,0,1,521.64,552Zm-2.16,0c0,.6.34,1,.83,1s.82-.44.82-1.06c0-.46-.23-1-.81-1S519.48,551.47,519.48,552Z" transform="translate(-387.24 -328.09)"/><path class="cls-19" d="M523.73,552.07a.87.87,0,0,0,.93.94,1.78,1.78,0,0,0,.75-.14l.08.35a2.2,2.2,0,0,1-.9.17,1.26,1.26,0,0,1-1.34-1.37,1.32,1.32,0,0,1,1.27-1.47,1.15,1.15,0,0,1,1.12,1.28,1.92,1.92,0,0,1,0,.23Zm1.45-.35a.7.7,0,0,0-.68-.8.82.82,0,0,0-.76.8Z" transform="translate(-387.24 -328.09)"/><path class="cls-19" d="M526.27,551.51c0-.35,0-.63,0-.89h.44l0,.47h0a1.07,1.07,0,0,1,1-.53,1.23,1.23,0,0,1,1.15,1.38,1.29,1.29,0,0,1-1.24,1.46,1,1,0,0,1-.84-.43h0v1.48h-.49Zm.49.72a1.13,1.13,0,0,0,0,.2.76.76,0,0,0,.74.58c.52,0,.82-.43.82-1s-.29-1-.81-1a.79.79,0,0,0-.75.61.82.82,0,0,0,0,.2Z" transform="translate(-387.24 -328.09)"/><path class="cls-19" d="M530,549.86a.31.31,0,0,1-.61,0,.3.3,0,0,1,.31-.31A.29.29,0,0,1,530,549.86Zm-.55,3.48v-2.72H530v2.72Z" transform="translate(-387.24 -328.09)"/><path class="cls-19" d="M532.72,553.24a1.82,1.82,0,0,1-.78.16,1.29,1.29,0,0,1-1.35-1.39,1.38,1.38,0,0,1,1.46-1.44,1.65,1.65,0,0,1,.68.14l-.11.38A1.14,1.14,0,0,0,532,551a1,1,0,0,0,0,2,1.4,1.4,0,0,0,.61-.14Z" transform="translate(-387.24 -328.09)"/><path class="cls-19" d="M535.57,552.6c0,.28,0,.53,0,.74h-.44l0-.44h0a1,1,0,0,1-.9.51c-.43,0-.94-.24-.94-1.19v-1.59h.49v1.51c0,.52.16.86.61.86a.71.71,0,0,0,.65-.45.74.74,0,0,0,0-.25v-1.67h.49Z" transform="translate(-387.24 -328.09)"/><path class="cls-19" d="M536.39,551.47c0-.32,0-.6,0-.85h.43l0,.53h0a.81.81,0,0,1,.75-.6l.14,0V551l-.17,0a.69.69,0,0,0-.66.63,1.43,1.43,0,0,0,0,.23v1.45h-.49Z" transform="translate(-387.24 -328.09)"/><path class="cls-19" d="M538.45,552.07a.87.87,0,0,0,.93.94,1.78,1.78,0,0,0,.75-.14l.08.35a2.2,2.2,0,0,1-.9.17A1.26,1.26,0,0,1,538,552a1.32,1.32,0,0,1,1.27-1.47,1.15,1.15,0,0,1,1.12,1.28,1.89,1.89,0,0,1,0,.23Zm1.45-.35a.7.7,0,0,0-.69-.8.82.82,0,0,0-.76.8Z" transform="translate(-387.24 -328.09)"/><path class="cls-19" d="M541.54,549.86a.31.31,0,0,1-.61,0,.3.3,0,0,1,.31-.31A.29.29,0,0,1,541.54,549.86Zm-.55,3.48v-2.72h.49v2.72Z" transform="translate(-387.24 -328.09)"/><path class="cls-19" d="M544.09,549.84v.78h.71V551h-.71v1.47c0,.34.1.53.37.53a1.07,1.07,0,0,0,.29,0l0,.37a1.21,1.21,0,0,1-.44.07.68.68,0,0,1-.53-.21,1,1,0,0,1-.19-.71V551h-.42v-.38h.42V550Z" transform="translate(-387.24 -328.09)"/><path class="cls-19" d="M546.86,553.34l0-.34h0a1,1,0,0,1-.83.41.77.77,0,0,1-.83-.78c0-.66.58-1,1.63-1v-.06a.56.56,0,0,0-.62-.63,1.35,1.35,0,0,0-.71.2l-.11-.33a1.69,1.69,0,0,1,.89-.24c.83,0,1,.57,1,1.11v1a3.8,3.8,0,0,0,0,.65Zm-.07-1.39c-.54,0-1.15.08-1.15.61a.44.44,0,0,0,.47.47.68.68,0,0,0,.66-.45.5.5,0,0,0,0-.16Z" transform="translate(-387.24 -328.09)"/><path class="cls-19" d="M550,553.24a1.82,1.82,0,0,1-.78.16,1.29,1.29,0,0,1-1.35-1.39,1.38,1.38,0,0,1,1.46-1.44,1.65,1.65,0,0,1,.68.14l-.11.38a1.14,1.14,0,0,0-.57-.13,1,1,0,0,0,0,2,1.4,1.4,0,0,0,.61-.14Z" transform="translate(-387.24 -328.09)"/><path class="cls-19" d="M551.13,549.86a.31.31,0,0,1-.61,0,.3.3,0,0,1,.31-.31A.29.29,0,0,1,551.13,549.86Zm-.55,3.48v-2.72h.49v2.72Z" transform="translate(-387.24 -328.09)"/><path class="cls-19" d="M551.89,551.36c0-.28,0-.51,0-.74h.43l0,.44h0a.94.94,0,0,1,.85-.5.8.8,0,0,1,.77.55h0a1.12,1.12,0,0,1,.3-.35.93.93,0,0,1,.6-.19c.36,0,.89.24.89,1.18v1.6h-.48V551.8c0-.52-.19-.84-.59-.84a.64.64,0,0,0-.58.45.8.8,0,0,0,0,.25v1.68h-.48v-1.63c0-.43-.19-.75-.57-.75a.68.68,0,0,0-.61.49.7.7,0,0,0,0,.24v1.64h-.48Z" transform="translate(-387.24 -328.09)"/><path class="cls-19" d="M558.08,553.34l0-.34h0a1,1,0,0,1-.83.41.77.77,0,0,1-.83-.78c0-.66.58-1,1.63-1v-.06a.56.56,0,0,0-.62-.63,1.35,1.35,0,0,0-.71.2l-.11-.33a1.69,1.69,0,0,1,.89-.24c.83,0,1,.57,1,1.11v1a3.83,3.83,0,0,0,0,.65ZM558,552c-.54,0-1.15.08-1.15.61a.44.44,0,0,0,.47.47.68.68,0,0,0,.66-.45.5.5,0,0,0,0-.16Z" transform="translate(-387.24 -328.09)"/><path class="cls-19" d="M559.86,549.84v.78h.71V551h-.71v1.47c0,.34.1.53.37.53a1.08,1.08,0,0,0,.29,0l0,.37a1.21,1.21,0,0,1-.44.07.68.68,0,0,1-.53-.21,1,1,0,0,1-.19-.71V551H559v-.38h.42V550Z" transform="translate(-387.24 -328.09)"/><path class="cls-19" d="M458.55,560.08l0-.34h0a1,1,0,0,1-.83.41.77.77,0,0,1-.83-.78c0-.66.58-1,1.63-1v-.06a.56.56,0,0,0-.62-.63,1.35,1.35,0,0,0-.71.2l-.11-.33a1.69,1.69,0,0,1,.89-.24c.83,0,1,.57,1,1.11v1a3.82,3.82,0,0,0,0,.65Zm-.07-1.39c-.54,0-1.15.08-1.15.61a.44.44,0,0,0,.47.47.68.68,0,0,0,.66-.45.5.5,0,0,0,0-.16Z" transform="translate(-387.24 -328.09)"/><path class="cls-19" d="M460.32,556.58v.78H461v.38h-.71v1.47c0,.34.1.53.37.53a1.08,1.08,0,0,0,.29,0l0,.37a1.21,1.21,0,0,1-.44.07.68.68,0,0,1-.53-.21,1,1,0,0,1-.19-.71v-1.48h-.42v-.38h.42v-.65Z" transform="translate(-387.24 -328.09)"/><path class="cls-19" d="M463.41,559.66h0a1,1,0,0,1-.89.48,1.24,1.24,0,0,1-1.15-1.38,1.3,1.3,0,0,1,1.23-1.47.89.89,0,0,1,.84.47h0l0-.41h.47c0,.23,0,.47,0,.75v3.08h-.49Zm0-1.2a.82.82,0,0,0,0-.21.72.72,0,0,0-.71-.56c-.51,0-.82.43-.82,1s.26,1,.8,1a.74.74,0,0,0,.71-.54.85.85,0,0,0,0-.24Z" transform="translate(-387.24 -328.09)"/><path class="cls-19" d="M467,559.34c0,.28,0,.53,0,.74h-.44l0-.44h0a1,1,0,0,1-.9.51c-.43,0-.94-.24-.94-1.19v-1.59h.49v1.51c0,.52.16.86.61.86a.71.71,0,0,0,.65-.45.74.74,0,0,0,0-.25v-1.67H467Z" transform="translate(-387.24 -328.09)"/><path class="cls-19" d="M468.36,556.6a.31.31,0,0,1-.61,0,.3.3,0,0,1,.31-.31A.29.29,0,0,1,468.36,556.6Zm-.55,3.48v-2.72h.49v2.72Z" transform="translate(-387.24 -328.09)"/><path class="cls-19" d="M472.17,559.66h0a1,1,0,0,1-.89.48,1.24,1.24,0,0,1-1.15-1.38,1.3,1.3,0,0,1,1.23-1.47.89.89,0,0,1,.84.47h0l0-.41h.47c0,.23,0,.47,0,.75v3.08h-.49Zm0-1.2a.82.82,0,0,0,0-.21.72.72,0,0,0-.71-.56c-.51,0-.82.43-.82,1s.26,1,.8,1a.74.74,0,0,0,.71-.54.84.84,0,0,0,0-.24Z" transform="translate(-387.24 -328.09)"/><path class="cls-19" d="M475.76,559.34c0,.28,0,.53,0,.74h-.44l0-.44h0a1,1,0,0,1-.9.51c-.43,0-.94-.24-.94-1.19v-1.59H474v1.51c0,.52.16.86.61.86a.71.71,0,0,0,.65-.45.74.74,0,0,0,0-.25v-1.67h.49Z" transform="translate(-387.24 -328.09)"/><path class="cls-19" d="M478.08,560.08l0-.34h0a1,1,0,0,1-.83.41.77.77,0,0,1-.83-.78c0-.66.58-1,1.63-1v-.06a.56.56,0,0,0-.62-.63,1.35,1.35,0,0,0-.71.2l-.11-.33a1.69,1.69,0,0,1,.89-.24c.83,0,1,.57,1,1.11v1a3.81,3.81,0,0,0,0,.65Zm-.07-1.39c-.54,0-1.15.08-1.15.61a.44.44,0,0,0,.47.47.68.68,0,0,0,.66-.45.51.51,0,0,0,0-.16Z" transform="translate(-387.24 -328.09)"/><path class="cls-19" d="M479.56,558.81a.87.87,0,0,0,.93.94,1.78,1.78,0,0,0,.75-.14l.08.35a2.2,2.2,0,0,1-.9.17,1.26,1.26,0,0,1-1.34-1.37,1.32,1.32,0,0,1,1.27-1.47,1.15,1.15,0,0,1,1.12,1.28,1.89,1.89,0,0,1,0,.23Zm1.45-.35a.7.7,0,0,0-.68-.8.82.82,0,0,0-.76.8Z" transform="translate(-387.24 -328.09)"/><path class="cls-19" d="M482,559.57a1.29,1.29,0,0,0,.65.2c.36,0,.53-.18.53-.4s-.14-.36-.51-.5-.72-.44-.72-.77a.84.84,0,0,1,.94-.8,1.35,1.35,0,0,1,.67.17l-.12.36a1.06,1.06,0,0,0-.56-.16c-.29,0-.46.17-.46.37s.16.33.52.46.71.42.71.82-.37.81-1,.81a1.55,1.55,0,0,1-.76-.18Z" transform="translate(-387.24 -328.09)"/><path class="cls-19" d="M484.92,556.58v.78h.71v.38h-.71v1.47c0,.34.1.53.37.53a1.08,1.08,0,0,0,.29,0l0,.37a1.21,1.21,0,0,1-.44.07.68.68,0,0,1-.53-.21,1,1,0,0,1-.19-.71v-1.48H484v-.38h.42v-.65Z" transform="translate(-387.24 -328.09)"/><path class="cls-19" d="M486.73,556.6a.31.31,0,0,1-.61,0,.3.3,0,0,1,.31-.31A.29.29,0,0,1,486.73,556.6Zm-.55,3.48v-2.72h.49v2.72Z" transform="translate(-387.24 -328.09)"/><path class="cls-19" d="M490,558.7a1.33,1.33,0,0,1-1.35,1.44,1.29,1.29,0,0,1-1.3-1.4,1.33,1.33,0,0,1,1.35-1.44A1.29,1.29,0,0,1,490,558.7Zm-2.16,0c0,.6.34,1,.83,1s.82-.44.82-1.06c0-.46-.23-1-.81-1S487.8,558.21,487.8,558.73Z" transform="translate(-387.24 -328.09)"/><path class="cls-19" d="M492,557.36l.53,1.53a6.93,6.93,0,0,1,.22.7h0c.06-.22.14-.45.23-.7l.53-1.53H494l-1.07,2.72h-.47l-1-2.72Z" transform="translate(-387.24 -328.09)"/><path class="cls-19" d="M495,556.6a.31.31,0,0,1-.61,0,.3.3,0,0,1,.31-.31A.29.29,0,0,1,495,556.6Zm-.55,3.48v-2.72H495v2.72Z" transform="translate(-387.24 -328.09)"/><path class="cls-19" d="M495.72,559.57a1.29,1.29,0,0,0,.65.2c.36,0,.53-.18.53-.4s-.14-.36-.51-.5-.72-.44-.72-.77a.84.84,0,0,1,.94-.8,1.35,1.35,0,0,1,.67.17l-.12.36a1.06,1.06,0,0,0-.56-.16c-.29,0-.46.17-.46.37s.16.33.52.46.71.42.71.82-.37.81-1,.81a1.55,1.55,0,0,1-.76-.18Z" transform="translate(-387.24 -328.09)"/><path class="cls-19" d="M497.84,559.79a.33.33,0,0,1,.34-.35.35.35,0,0,1,0,.71A.33.33,0,0,1,497.84,559.79Z" transform="translate(-387.24 -328.09)"/><path class="cls-19" d="M500.26,559.48a1.73,1.73,0,0,0,.88.25c.5,0,.79-.26.79-.65s-.2-.56-.71-.75-1-.54-1-1.07a1.09,1.09,0,0,1,1.22-1,1.72,1.72,0,0,1,.84.18l-.13.4a1.51,1.51,0,0,0-.72-.18c-.52,0-.71.31-.71.57s.23.53.75.73,1,.56,1,1.11-.43,1.09-1.32,1.09a2,2,0,0,1-1-.24Z" transform="translate(-387.24 -328.09)"/><path class="cls-19" d="M505.35,559.34c0,.28,0,.53,0,.74h-.44l0-.44h0a1,1,0,0,1-.9.51c-.43,0-.94-.24-.94-1.19v-1.59h.49v1.51c0,.52.16.86.61.86a.71.71,0,0,0,.65-.45.74.74,0,0,0,0-.25v-1.67h.49Z" transform="translate(-387.24 -328.09)"/><path class="cls-19" d="M506.17,558.1c0-.28,0-.51,0-.74h.43l0,.44h0a.93.93,0,0,1,.85-.5.8.8,0,0,1,.77.54h0a1.12,1.12,0,0,1,.3-.35.93.93,0,0,1,.6-.19c.36,0,.89.24.89,1.18v1.6h-.48v-1.54c0-.52-.19-.84-.59-.84a.64.64,0,0,0-.58.45.8.8,0,0,0,0,.25v1.68h-.48v-1.63c0-.43-.19-.75-.57-.75a.68.68,0,0,0-.61.49.7.7,0,0,0,0,.24v1.64h-.48Z" transform="translate(-387.24 -328.09)"/><path class="cls-19" d="M510.86,558.1c0-.28,0-.51,0-.74h.43l0,.44h0a.93.93,0,0,1,.85-.5.8.8,0,0,1,.77.54h0a1.12,1.12,0,0,1,.3-.35.93.93,0,0,1,.6-.19c.36,0,.89.24.89,1.18v1.6h-.48v-1.54c0-.52-.19-.84-.59-.84a.64.64,0,0,0-.58.45.8.8,0,0,0,0,.25v1.68h-.48v-1.63c0-.43-.19-.75-.57-.75a.68.68,0,0,0-.61.49.7.7,0,0,0,0,.24v1.64h-.48Z" transform="translate(-387.24 -328.09)"/><path class="cls-19" d="M518,558.7a1.33,1.33,0,0,1-1.35,1.44,1.29,1.29,0,0,1-1.3-1.4,1.33,1.33,0,0,1,1.35-1.44A1.29,1.29,0,0,1,518,558.7Zm-2.16,0c0,.6.34,1,.83,1s.82-.44.82-1.06c0-.46-.23-1-.81-1S515.85,558.21,515.85,558.73Z" transform="translate(-387.24 -328.09)"/><path class="cls-19" d="M520.1,558.81a.87.87,0,0,0,.93.94,1.78,1.78,0,0,0,.75-.14l.08.35a2.2,2.2,0,0,1-.9.17,1.26,1.26,0,0,1-1.34-1.37,1.32,1.32,0,0,1,1.27-1.47,1.15,1.15,0,0,1,1.12,1.28,1.91,1.91,0,0,1,0,.23Zm1.45-.35a.7.7,0,0,0-.68-.8.82.82,0,0,0-.76.8Z" transform="translate(-387.24 -328.09)"/><path class="cls-19" d="M522.64,558.21c0-.32,0-.6,0-.85H523l0,.53h0a.81.81,0,0,1,.75-.6l.14,0v.47l-.17,0a.69.69,0,0,0-.66.63,1.42,1.42,0,0,0,0,.23v1.45h-.49Z" transform="translate(-387.24 -328.09)"/><path class="cls-19" d="M524.5,558.21c0-.32,0-.6,0-.85h.43l0,.53h0a.82.82,0,0,1,.75-.6l.14,0v.47l-.17,0a.69.69,0,0,0-.66.63,1.41,1.41,0,0,0,0,.23v1.45h-.49Z" transform="translate(-387.24 -328.09)"/><path class="cls-19" d="M526.55,558.81a.87.87,0,0,0,.93.94,1.78,1.78,0,0,0,.75-.14l.08.35a2.2,2.2,0,0,1-.9.17,1.26,1.26,0,0,1-1.34-1.37,1.32,1.32,0,0,1,1.27-1.47,1.15,1.15,0,0,1,1.12,1.28,1.91,1.91,0,0,1,0,.23Zm1.45-.35a.7.7,0,0,0-.69-.8.82.82,0,0,0-.76.8Z" transform="translate(-387.24 -328.09)"/><path class="cls-20" d="M460.6,532.6h-3.16v-5.31h1.2v4.34h2Z" transform="translate(-387.24 -328.09)"/><path class="cls-20" d="M463.37,532.69a2.47,2.47,0,0,1-1.86-.74,2.67,2.67,0,0,1-.72-1.94,2.86,2.86,0,0,1,.73-2,2.53,2.53,0,0,1,1.93-.78,2.41,2.41,0,0,1,1.84.74,2.75,2.75,0,0,1,.7,2,2.81,2.81,0,0,1-.73,2A2.5,2.5,0,0,1,463.37,532.69Zm.05-4.46a1.2,1.2,0,0,0-1,.47,2,2,0,0,0-.37,1.25,1.93,1.93,0,0,0,.37,1.25,1.19,1.19,0,0,0,1,.46,1.2,1.2,0,0,0,1-.45,1.91,1.91,0,0,0,.36-1.24,2.07,2.07,0,0,0-.35-1.29A1.15,1.15,0,0,0,463.42,528.22Z" transform="translate(-387.24 -328.09)"/><path class="cls-20" d="M471.34,532.6H470l-.83-1.37L469,531a1.55,1.55,0,0,0-.17-.21.68.68,0,0,0-.18-.13.46.46,0,0,0-.21,0h-.32v2h-1.2v-5.31h1.9q1.93,0,1.93,1.44a1.5,1.5,0,0,1-.09.51,1.43,1.43,0,0,1-.24.42,1.53,1.53,0,0,1-.38.33,1.94,1.94,0,0,1-.49.21h0a.76.76,0,0,1,.23.12,1.65,1.65,0,0,1,.21.19l.2.24.17.25Zm-3.26-4.42v1.48h.52a.86.86,0,0,0,.62-.22.74.74,0,0,0,.24-.56q0-.7-.83-.7Z" transform="translate(-387.24 -328.09)"/><path class="cls-20" d="M475,532.6h-3.19v-5.31h3.06v1H473v1.18h1.74v1H473v1.22h2Z" transform="translate(-387.24 -328.09)"/><path class="cls-20" d="M481.93,532.6h-1.18v-3.18q0-.51,0-1.14h0a5.59,5.59,0,0,1-.17.7l-1.25,3.61h-1L477.1,529a6.92,6.92,0,0,1-.17-.74h0q0,.79,0,1.38v2.94h-1.08v-5.31h1.75l1.09,3.15a4.45,4.45,0,0,1,.19.76h0a7.69,7.69,0,0,1,.21-.77l1.09-3.14h1.71Z" transform="translate(-387.24 -328.09)"/><path class="cls-20" d="M486.87,527.28v.93h-.44v3.46h.44v.93h-2.09v-.93h.44v-3.46h-.44v-.93Z" transform="translate(-387.24 -328.09)"/><path class="cls-20" d="M488.83,530.77v1.83h-1.2v-5.31h1.87q2,0,2,1.69a1.62,1.62,0,0,1-.58,1.29,2.28,2.28,0,0,1-1.54.49Zm0-2.56v1.66h.47q1,0,1-.84t-1-.82Z" transform="translate(-387.24 -328.09)"/><path class="cls-20" d="M492,532.39v-1.19a2.28,2.28,0,0,0,.7.41,2.24,2.24,0,0,0,.76.14,1.69,1.69,0,0,0,.39,0,.92.92,0,0,0,.28-.11.49.49,0,0,0,.17-.17.43.43,0,0,0,.06-.21.46.46,0,0,0-.09-.28,1,1,0,0,0-.24-.23,2.53,2.53,0,0,0-.36-.2l-.46-.2a2.32,2.32,0,0,1-.93-.63,1.38,1.38,0,0,1-.31-.9,1.44,1.44,0,0,1,.17-.71,1.41,1.41,0,0,1,.45-.49,2,2,0,0,1,.67-.28,3.42,3.42,0,0,1,.8-.09,4.81,4.81,0,0,1,.74.05,2.9,2.9,0,0,1,.59.15v1.11a1.81,1.81,0,0,0-.29-.16l-.32-.12-.33-.07-.31,0a1.63,1.63,0,0,0-.37,0,1,1,0,0,0-.28.11.54.54,0,0,0-.18.17.4.4,0,0,0-.06.22.42.42,0,0,0,.07.24.81.81,0,0,0,.2.2,2.11,2.11,0,0,0,.32.19l.42.19a4.68,4.68,0,0,1,.57.28,2,2,0,0,1,.44.34,1.33,1.33,0,0,1,.28.43,1.73,1.73,0,0,1-.07,1.31,1.37,1.37,0,0,1-.46.49,2,2,0,0,1-.67.27,3.88,3.88,0,0,1-.81.08,4.5,4.5,0,0,1-.83-.07A2.51,2.51,0,0,1,492,532.39Z" transform="translate(-387.24 -328.09)"/><path class="cls-20" d="M500.88,530.3q0,2.39-2.23,2.39t-2.16-2.34v-3.07h1.2v3.08q0,1.29,1,1.29t1-1.25v-3.13h1.2Z" transform="translate(-387.24 -328.09)"/><path class="cls-20" d="M508.09,532.6h-1.18v-3.18q0-.51,0-1.14h0a5.59,5.59,0,0,1-.17.7l-1.25,3.61h-1L503.26,529a6.93,6.93,0,0,1-.17-.74h0q0,.79,0,1.38v2.94H502v-5.31h1.75l1.09,3.15a4.45,4.45,0,0,1,.19.76h0a7.68,7.68,0,0,1,.21-.77l1.09-3.14h1.71Z" transform="translate(-387.24 -328.09)"/><path class="cls-18" d="M474.29,476a17,17,0,0,1-7.38,1.37q-5.94,0-9.34-3.49a12.76,12.76,0,0,1-3.4-9.3,13.63,13.63,0,0,1,3.82-10,13.37,13.37,0,0,1,9.92-3.85,18.56,18.56,0,0,1,6.37,1v5.6a11.28,11.28,0,0,0-5.9-1.55,7.83,7.83,0,0,0-5.87,2.29,8.48,8.48,0,0,0-2.23,6.19,8.32,8.32,0,0,0,2.11,6,7.44,7.44,0,0,0,5.67,2.22,12.09,12.09,0,0,0,6.23-1.66Z" transform="translate(-387.24 -328.09)"/><path class="cls-18" d="M501.48,476.92h-6.33l-1.83-5.74h-9.18l-1.82,5.74H476l9.39-25.8h6.89Zm-9.5-10.2L489.21,458a11.26,11.26,0,0,1-.43-2.32h-.14a9.85,9.85,0,0,1-.45,2.25l-2.81,8.75Z" transform="translate(-387.24 -328.09)"/><path class="cls-18" d="M526.35,476.92h-6.68l-4-6.64q-.45-.76-.86-1.35a7.47,7.47,0,0,0-.84-1,3.33,3.33,0,0,0-.88-.65,2.24,2.24,0,0,0-1-.22h-1.57v9.88H504.7v-25.8h9.21q9.39,0,9.39,7a7.27,7.27,0,0,1-.41,2.49,6.93,6.93,0,0,1-1.17,2.06,7.41,7.41,0,0,1-1.83,1.58,9.41,9.41,0,0,1-2.38,1v.07a3.69,3.69,0,0,1,1.12.58,8,8,0,0,1,1,.94,13.26,13.26,0,0,1,1,1.16q.46.62.84,1.21Zm-15.83-21.45v7.18H513a4.18,4.18,0,0,0,3-1.08,3.61,3.61,0,0,0,1.15-2.72q0-3.38-4-3.38Z" transform="translate(-387.24 -328.09)"/><path class="cls-18" d="M528.76,476.92v-25.8h9.14q13.75,0,13.75,12.58a12.72,12.72,0,0,1-3.75,9.63q-3.75,3.6-10,3.6Zm5.81-21.07V472.2h2.88a7.78,7.78,0,0,0,5.93-2.27,8.6,8.6,0,0,0,2.15-6.17,7.8,7.8,0,0,0-2.13-5.8,8.13,8.13,0,0,0-6-2.11Z" transform="translate(-387.24 -328.09)"/><path class="cls-18" d="M466.78,681.85h-1.86V667.79a4.31,4.31,0,0,1-.63.49,10.27,10.27,0,0,1-.93.55q-.52.27-1.09.51a7.89,7.89,0,0,1-1.12.37v-1.88a10.73,10.73,0,0,0,1.3-.46q.69-.29,1.35-.65t1.25-.75a10,10,0,0,0,1-.77h.7Z" transform="translate(-387.24 -328.09)"/><path class="cls-18" d="M479.85,669.84a3.37,3.37,0,0,0-.23-1.3,2.52,2.52,0,0,0-1.58-1.48,3.71,3.71,0,0,0-1.18-.18,3.89,3.89,0,0,0-1.07.15,5.21,5.21,0,0,0-1,.41,6.32,6.32,0,0,0-1,.63,7,7,0,0,0-.86.81v-2a5.57,5.57,0,0,1,1.75-1.16,6.17,6.17,0,0,1,2.37-.4,5.7,5.7,0,0,1,1.85.29,4.24,4.24,0,0,1,1.48.84,3.91,3.91,0,0,1,1,1.37,4.63,4.63,0,0,1,.36,1.87,6.42,6.42,0,0,1-.22,1.75,5.39,5.39,0,0,1-.67,1.48,7.14,7.14,0,0,1-1.13,1.33,16,16,0,0,1-1.6,1.29q-1.15.82-1.89,1.4a8.35,8.35,0,0,0-1.18,1.08,3.14,3.14,0,0,0-.61,1,3.53,3.53,0,0,0-.18,1.16h8.1v1.67h-10V681a6.69,6.69,0,0,1,.23-1.84,4.77,4.77,0,0,1,.75-1.51,8.35,8.35,0,0,1,1.37-1.43q.85-.71,2.07-1.61a13.14,13.14,0,0,0,1.48-1.21,6.36,6.36,0,0,0,1-1.16,4.16,4.16,0,0,0,.52-1.17A5.07,5.07,0,0,0,479.85,669.84Z" transform="translate(-387.24 -328.09)"/><path class="cls-18" d="M492.85,665.57l-7.81,19h-1.74l7.79-19Z" transform="translate(-387.24 -328.09)"/><path class="cls-18" d="M504.26,673.64a16,16,0,0,1-.37,3.62,8.44,8.44,0,0,1-1.07,2.66,4.8,4.8,0,0,1-1.71,1.65,4.69,4.69,0,0,1-2.31.56,4.38,4.38,0,0,1-2.19-.54A4.57,4.57,0,0,1,495,680a8,8,0,0,1-1-2.54,15.71,15.71,0,0,1-.34-3.44,17.76,17.76,0,0,1,.36-3.77,8.61,8.61,0,0,1,1.05-2.74,4.67,4.67,0,0,1,1.72-1.67,4.82,4.82,0,0,1,2.36-.56Q504.26,665.3,504.26,673.64Zm-1.91.18q0-6.95-3.3-6.95-3.48,0-3.48,7.07,0,6.59,3.42,6.59T502.35,673.82Z" transform="translate(-387.24 -328.09)"/><path class="cls-18" d="M514,669.84a3.37,3.37,0,0,0-.23-1.3,2.52,2.52,0,0,0-1.58-1.48,3.71,3.71,0,0,0-1.18-.18,3.89,3.89,0,0,0-1.07.15,5.21,5.21,0,0,0-1,.41,6.32,6.32,0,0,0-1,.63,7,7,0,0,0-.86.81v-2a5.57,5.57,0,0,1,1.75-1.16,6.17,6.17,0,0,1,2.37-.4,5.7,5.7,0,0,1,1.85.29,4.24,4.24,0,0,1,1.48.84,3.91,3.91,0,0,1,1,1.37,4.63,4.63,0,0,1,.36,1.87,6.42,6.42,0,0,1-.22,1.75,5.39,5.39,0,0,1-.67,1.48,7.14,7.14,0,0,1-1.13,1.33,16,16,0,0,1-1.6,1.29q-1.15.82-1.89,1.4a8.35,8.35,0,0,0-1.18,1.08,3.14,3.14,0,0,0-.61,1,3.53,3.53,0,0,0-.18,1.16h8.1v1.67h-10V681a6.69,6.69,0,0,1,.23-1.84,4.77,4.77,0,0,1,.75-1.51,8.35,8.35,0,0,1,1.37-1.43q.85-.71,2.07-1.61a13.14,13.14,0,0,0,1.48-1.21,6.36,6.36,0,0,0,1-1.16,4.16,4.16,0,0,0,.52-1.17A5.07,5.07,0,0,0,514,669.84Z" transform="translate(-387.24 -328.09)"/><path class="cls-18" d="M527,665.57l-7.81,19h-1.74l7.79-19Z" transform="translate(-387.24 -328.09)"/><path class="cls-18" d="M535.56,669.84a3.37,3.37,0,0,0-.23-1.3,2.52,2.52,0,0,0-1.58-1.48,3.71,3.71,0,0,0-1.18-.18,3.89,3.89,0,0,0-1.07.15,5.21,5.21,0,0,0-1,.41,6.32,6.32,0,0,0-1,.63,7,7,0,0,0-.86.81v-2a5.57,5.57,0,0,1,1.75-1.16,6.17,6.17,0,0,1,2.37-.4,5.7,5.7,0,0,1,1.85.29,4.24,4.24,0,0,1,1.48.84,3.91,3.91,0,0,1,1,1.37,4.63,4.63,0,0,1,.36,1.87,6.42,6.42,0,0,1-.22,1.75,5.39,5.39,0,0,1-.67,1.48,7.14,7.14,0,0,1-1.13,1.33,16,16,0,0,1-1.6,1.29q-1.15.82-1.89,1.4a8.35,8.35,0,0,0-1.18,1.08,3.14,3.14,0,0,0-.61,1,3.53,3.53,0,0,0-.18,1.16h8.1v1.67H528V681a6.69,6.69,0,0,1,.23-1.84,4.77,4.77,0,0,1,.75-1.51,8.35,8.35,0,0,1,1.37-1.43q.85-.71,2.07-1.61a13.14,13.14,0,0,0,1.48-1.21,6.36,6.36,0,0,0,1-1.16,4.16,4.16,0,0,0,.52-1.17A5.07,5.07,0,0,0,535.56,669.84Z" transform="translate(-387.24 -328.09)"/><path class="cls-18" d="M547.55,681.85h-1.86V667.79a4.31,4.31,0,0,1-.63.49,10.27,10.27,0,0,1-.93.55q-.52.27-1.09.51a7.89,7.89,0,0,1-1.12.37v-1.88a10.73,10.73,0,0,0,1.3-.46q.69-.29,1.35-.65t1.25-.75a10,10,0,0,0,1-.77h.7Z" transform="translate(-387.24 -328.09)"/><path class="cls-21" d="M536.26,351.59h.53v.53h-.53Z" transform="translate(-387.24 -328.09)"/><path class="cls-22" d="M537.6,355.65l-.13.51a1.7,1.7,0,0,1-.95-.57,1.58,1.58,0,0,1-.33-1,1.81,1.81,0,0,1,.25-1,1.57,1.57,0,0,1,.73-.59,2.6,2.6,0,0,1,1-.2,2.25,2.25,0,0,1,1,.23,1.56,1.56,0,0,1,.67.65,1.89,1.89,0,0,1,.23.93,1.56,1.56,0,0,1-.29,1,1.51,1.51,0,0,1-.82.55l-.12-.5a1.19,1.19,0,0,0,.61-.39,1,1,0,0,0,.19-.64,1.23,1.23,0,0,0-.21-.74,1.11,1.11,0,0,0-.57-.42,2.28,2.28,0,0,0-.73-.12,2.33,2.33,0,0,0-.85.14,1.06,1.06,0,0,0-.54.44,1.24,1.24,0,0,0-.18.65,1.09,1.09,0,0,0,.24.72A1.27,1.27,0,0,0,537.6,355.65Z" transform="translate(-387.24 -328.09)"/><path class="cls-22" d="M538.12,356.54a2.08,2.08,0,0,1,1.49.51,1.74,1.74,0,0,1,.54,1.32,1.83,1.83,0,0,1-.26,1,1.65,1.65,0,0,1-.7.65,2.29,2.29,0,0,1-1,.22,2.25,2.25,0,0,1-1-.23,1.6,1.6,0,0,1-.69-.66,1.9,1.9,0,0,1-.24-.93,1.81,1.81,0,0,1,.26-1,1.68,1.68,0,0,1,.71-.64A2.16,2.16,0,0,1,538.12,356.54Zm0,.52a1.53,1.53,0,0,0-1.09.37,1.29,1.29,0,0,0,0,1.83h0l0,0a1.62,1.62,0,0,0,1.14.37,2,2,0,0,0,.81-.16,1.21,1.21,0,0,0,.54-.46,1.25,1.25,0,0,0,.19-.68,1.29,1.29,0,0,0-.37-.92,1.65,1.65,0,0,0-1.23-.39Z" transform="translate(-387.24 -328.09)"/><path class="cls-22" d="M536.26,360.75h3.82v.76l-2.7.9-.57.18.61.2,2.66.91v.68h-3.82v-.49h3.2l-3.2-1.11v-.46l3.25-1.1h-3.25Z" transform="translate(-387.24 -328.09)"/><path class="cls-1" d="M532.27,368.55h0v0Z" transform="translate(-387.24 -328.09)"/><polygon class="cls-23" points="149.88 38.33 147.98 41.55 149.44 41.55 151.32 38.33 149.88 38.33"/><path class="cls-23" d="M534.31,366.42l-.46.79H534a.69.69,0,0,1,.3.07l.11.07.09.08-.17.19a.6.6,0,0,0-.14-.1.44.44,0,0,0-.2,0,.49.49,0,0,0-.21,0,.46.46,0,0,0-.16.12.57.57,0,0,0-.1.19.85.85,0,0,0,0,.26.72.72,0,0,0,.13.46.47.47,0,0,0,.39.17l.14,0,.11-.06v-.37h-.32V368h.6v.75a.72.72,0,0,1-.23.15.84.84,0,0,1-.32.06.86.86,0,0,1-.32-.06.7.7,0,0,1-.25-.17.78.78,0,0,1-.17-.28.93.93,0,0,1,0-.13l-.77,1.3h2l1.88-3.22Z" transform="translate(-387.24 -328.09)"/><path class="cls-23" d="M531.51,367.61h0q0,.14,0,.29t0,.29v.75h-.29v-1.71h.31l.53,1,.17.36v0c0-.08,0-.17,0-.26s0-.2,0-.3v-.74h.29v.87l1-1.68H505.35a4,4,0,0,1-.77,1.3,5.87,5.87,0,0,1-2,1.39,12.89,12.89,0,0,1-1.28.53h30.34l.5-.86-.44-.8Zm-24.89,1a.47.47,0,0,1-.12.16.6.6,0,0,1-.19.11.76.76,0,0,1-.26,0,.88.88,0,0,1-.33-.07.87.87,0,0,1-.28-.18l.18-.21a.76.76,0,0,0,.21.14.56.56,0,0,0,.24.05.35.35,0,0,0,.22-.06.19.19,0,0,0,.08-.16.19.19,0,0,0,0-.09l-.05-.06-.08-.05-.11,0-.23-.1-.12-.07-.11-.09a.45.45,0,0,1-.07-.49.48.48,0,0,1,.12-.15.55.55,0,0,1,.18-.1.7.7,0,0,1,.23,0,.73.73,0,0,1,.29.06.74.74,0,0,1,.24.16l-.15.19a.77.77,0,0,0-.17-.11.49.49,0,0,0-.2,0,.32.32,0,0,0-.2.05.17.17,0,0,0-.07.15.16.16,0,0,0,0,.09l.06.06.09,0,.1,0,.23.1.14.07.11.1a.42.42,0,0,1,.07.13.49.49,0,0,1,0,.17.47.47,0,0,1,0,.2Zm1.57.28-.13-.46h-.58l-.13.46H507l.56-1.71h.36l.56,1.71Zm1.44,0h-.36l-.53-1.71h.32l.24.86.07.28.08.28h0l.08-.28.07-.28.24-.86h.31Zm2.08,0h-1.06v-1.71h1v.26H511v.44h.61v.26H511v.5h.75Zm2.83-.49a.82.82,0,0,1-.16.28.67.67,0,0,1-.24.18.79.79,0,0,1-.61,0,.66.66,0,0,1-.24-.18.83.83,0,0,1-.15-.28,1.18,1.18,0,0,1-.05-.37,1.16,1.16,0,0,1,.05-.37.79.79,0,0,1,.15-.28.67.67,0,0,1,.24-.17.81.81,0,0,1,.61,0,.68.68,0,0,1,.24.17.78.78,0,0,1,.16.28,1.16,1.16,0,0,1,.05.37,1.18,1.18,0,0,1-.05.37Zm2,.49h-.31l-.53-1-.18-.36h0q0,.14,0,.29t0,.29v.75h-.29v-1.71h.31l.53,1,.18.36h0l0-.29q0-.15,0-.3v-.74h.29Zm2.6,0H518v-1.71h1v.26h-.73v.44H519v.26h-.61v.5h.76Zm1.3,0H520l-.53-1.71h.32l.24.86.07.28.08.28h0l.08-.28.07-.28.24-.86h.31Zm2.08,0h-1.06v-1.71h1v.26h-.73v.44h.61v.26h-.61v.5h.75Zm1.57,0-.37-.67h-.26v.67h-.3v-1.71h.58l.25,0a.56.56,0,0,1,.2.09.41.41,0,0,1,.13.16.54.54,0,0,1,0,.24.5.5,0,0,1-.09.32.51.51,0,0,1-.25.17l.41.71Zm1.47-.63v.64h-.3v-.64l-.51-1.07H525l.19.44.07.19.08.19h0l.08-.19.08-.19.19-.44H526Zm2.11-.82h-.49v1.45h-.3v-1.45h-.49v-.26h1.29Zm1.87,1.45h-.3v-.76h-.69v.76h-.3v-1.71h.3v.69h.69v-.69h.3Zm1,0h-.3v-1.71h.3Z" transform="translate(-387.24 -328.09)"/><polygon class="cls-23" points="152.13 38.33 150.23 41.55 151.02 41.55 152.9 38.33 152.13 38.33"/><path class="cls-23" d="M507.84,367.75l-.07-.29h0l-.07.29-.08.28-.06.21H508l-.06-.21Z" transform="translate(-387.24 -328.09)"/><path class="cls-23" d="M513.83,367.46a.38.38,0,0,0-.32.16.75.75,0,0,0-.12.45,1,1,0,0,0,0,.26.63.63,0,0,0,.09.2.41.41,0,0,0,.14.13.4.4,0,0,0,.36,0,.41.41,0,0,0,.14-.13.63.63,0,0,0,.09-.2,1,1,0,0,0,0-.26.75.75,0,0,0-.12-.45A.38.38,0,0,0,513.83,367.46Z" transform="translate(-387.24 -328.09)"/><path class="cls-23" d="M523.93,367.53a.51.51,0,0,0-.27-.06h-.24V368h.24a.43.43,0,0,0,.27-.07.26.26,0,0,0,.09-.22A.22.22,0,0,0,523.93,367.53Z" transform="translate(-387.24 -328.09)"/><path class="cls-18" d="M477.31,356.23a10.9,10.9,0,0,1-.52,3.42,7.86,7.86,0,0,1-1.51,2.72,7.07,7.07,0,0,1-2.43,1.81,7.77,7.77,0,0,1-3.28.66,7.07,7.07,0,0,1-2.88-.59,7.18,7.18,0,0,1-2.35-1.65,7.68,7.68,0,0,1-1.58-2.56,9.17,9.17,0,0,1-.58-3.32,11.06,11.06,0,0,1,.52-3.47,7.86,7.86,0,0,1,1.51-2.72,6.77,6.77,0,0,1,2.43-1.78,8.08,8.08,0,0,1,3.28-.63,7.43,7.43,0,0,1,2.8.54,6.77,6.77,0,0,1,2.36,1.59,7.81,7.81,0,0,1,1.62,2.56A9.13,9.13,0,0,1,477.31,356.23Zm-3.33.45a6.75,6.75,0,0,0-1.15-4.28,3.89,3.89,0,0,0-3.22-1.43,3.82,3.82,0,0,0-1.65.36,3.6,3.6,0,0,0-1.3,1,5.11,5.11,0,0,0-.85,1.66,7.38,7.38,0,0,0-.31,2.2q0,5.8,4.37,5.8a3.68,3.68,0,0,0,3-1.34A6.2,6.2,0,0,0,474,356.68Z" transform="translate(-387.24 -328.09)"/><path class="cls-18" d="M487,354.91a7.51,7.51,0,0,0-.79-.25,4.17,4.17,0,0,0-1-.12,2.08,2.08,0,0,0-1.62.62,3.08,3.08,0,0,0-.56,2.08v7.31h-.88a2.57,2.57,0,0,1-1.69-.52,1.84,1.84,0,0,1-.63-1.51v-5.85a6.74,6.74,0,0,1,.26-1.85,4.3,4.3,0,0,1,.82-1.59,4.21,4.21,0,0,1,1.46-1.11,5,5,0,0,1,2.15-.43,3.52,3.52,0,0,1,1.23.19,2.34,2.34,0,0,1,.81.48,1.84,1.84,0,0,1,.45.67,2,2,0,0,1,.14.73v1.13Z" transform="translate(-387.24 -328.09)"/><path class="cls-18" d="M498.89,360.22a4.76,4.76,0,0,1-.35,1.85,4.13,4.13,0,0,1-1,1.44,4.48,4.48,0,0,1-1.52.93,5.52,5.52,0,0,1-1.94.33h-.64a6.71,6.71,0,0,1-2.07-.31,5.15,5.15,0,0,1-1.62-.84,3.6,3.6,0,0,1-1.4-2.89,3.78,3.78,0,0,1,.33-1.58,3.17,3.17,0,0,1,1.07-1.26,5.72,5.72,0,0,1,2-.84,12.36,12.36,0,0,1,3-.31h1.11v-.16a2.18,2.18,0,0,0-.66-1.84,3.47,3.47,0,0,0-2.07-.5,7.34,7.34,0,0,0-1.53.14,5.76,5.76,0,0,0-1.17.37,4.31,4.31,0,0,0-.83.48,3.2,3.2,0,0,0-.51.47h-.12v-1a2.61,2.61,0,0,1,.25-1.07,2.84,2.84,0,0,1,.8-1,4.23,4.23,0,0,1,1.44-.74,7.08,7.08,0,0,1,2.13-.28,7.54,7.54,0,0,1,2,.27,4.3,4.3,0,0,1,1.71.93,4.58,4.58,0,0,1,1.19,1.76,7.39,7.39,0,0,1,.44,2.75ZM495.8,359h-1.13a9,9,0,0,0-1.5.1,3,3,0,0,0-1,.31,1.12,1.12,0,0,0-.5.51,1.64,1.64,0,0,0-.14.69,1.36,1.36,0,0,0,.56,1.17,2.74,2.74,0,0,0,1.62.41,1.76,1.76,0,0,0,2-2Z" transform="translate(-387.24 -328.09)"/><path class="cls-18" d="M505.18,364.47a4.74,4.74,0,0,1-.32,1.78,3.65,3.65,0,0,1-.9,1.33,3.93,3.93,0,0,1-1.37.82,5,5,0,0,1-1.71.28,2.42,2.42,0,0,1-1.5-.42,1.25,1.25,0,0,1-.55-1v-1.15h.42l.52,0,.59,0a1.9,1.9,0,0,0,1.15-.48,1.72,1.72,0,0,0,.5-1.36v-12h.9a2.37,2.37,0,0,1,1.66.55,2.11,2.11,0,0,1,.6,1.64Zm.3-15.46a1.83,1.83,0,0,1-.53,1.31,1.71,1.71,0,0,1-1.28.55A1.89,1.89,0,0,1,501.8,349a1.74,1.74,0,0,1,.55-1.29,1.81,1.81,0,0,1,1.31-.54,1.72,1.72,0,0,1,1.28.54A1.78,1.78,0,0,1,505.47,349Z" transform="translate(-387.24 -328.09)"/><path class="cls-18" d="M507.94,358.43a8.71,8.71,0,0,1,.4-2.69,6.26,6.26,0,0,1,1.2-2.18,5.7,5.7,0,0,1,2-1.47,6.44,6.44,0,0,1,2.71-.54,5.9,5.9,0,0,1,2.56.53,5.62,5.62,0,0,1,1.88,1.42,6.3,6.3,0,0,1,1.17,2.05,7.35,7.35,0,0,1,.4,2.44,8.49,8.49,0,0,1-.41,2.69,6.45,6.45,0,0,1-1.2,2.18,5.56,5.56,0,0,1-2,1.46,6.5,6.5,0,0,1-2.71.54,5.84,5.84,0,0,1-2.56-.54,5.76,5.76,0,0,1-1.88-1.42,6.16,6.16,0,0,1-1.17-2A7.31,7.31,0,0,1,507.94,358.43Zm9,0a5.27,5.27,0,0,0-.73-3,2.57,2.57,0,0,0-2.29-1.08,2.3,2.3,0,0,0-2.05,1,4.58,4.58,0,0,0-.68,2.6,5.25,5.25,0,0,0,.72,3,2.57,2.57,0,0,0,2.3,1.07,2.3,2.3,0,0,0,2.06-1A4.58,4.58,0,0,0,517,358.43Z" transform="translate(-387.24 -328.09)"/><path class="cls-18" d="M533.08,364.56a2.37,2.37,0,0,1-1.69-.59,2,2,0,0,1-.63-1.49v-5a3.45,3.45,0,0,0-.67-2.37,2.44,2.44,0,0,0-1.9-.73,2.09,2.09,0,0,0-1.67.74,3.16,3.16,0,0,0-.63,2.11v7.36H525a2.22,2.22,0,0,1-1.62-.59,2,2,0,0,1-.6-1.49V357a6,6,0,0,1,.35-2,5.19,5.19,0,0,1,1-1.75,5,5,0,0,1,1.78-1.24,6.5,6.5,0,0,1,2.57-.47,6.11,6.11,0,0,1,2.12.36,4.87,4.87,0,0,1,1.73,1.08,5.24,5.24,0,0,1,1.18,1.77,6.17,6.17,0,0,1,.44,2.4v7.41Z" transform="translate(-387.24 -328.09)"/><path class="cls-18" d="M474.28,349.95l-.18-.16Z" transform="translate(-387.24 -328.09)"/><path class="cls-18" d="M474.28,349.95h0Z" transform="translate(-387.24 -328.09)"/><path class="cls-24" d="M464.83,362.55a7.39,7.39,0,0,1-1.51-2.46,8.85,8.85,0,0,1-.55-3.19,10.68,10.68,0,0,1,.5-3.33A7.57,7.57,0,0,1,464.7,351a6.47,6.47,0,0,1,2.32-1.71,7.69,7.69,0,0,1,3.14-.61,7.07,7.07,0,0,1,2.68.52,6.45,6.45,0,0,1,1.52.87l-.08-.07a6.44,6.44,0,0,0-1.71-1,7.07,7.07,0,0,0-2.68-.52,7.69,7.69,0,0,0-3.14.61,6.47,6.47,0,0,0-2.32,1.71,7.57,7.57,0,0,0-1.44,2.62,10.68,10.68,0,0,0-.5,3.33,8.85,8.85,0,0,0,.55,3.19,7.39,7.39,0,0,0,1.51,2.46q.23.24.47.46l.2.16Q465,362.76,464.83,362.55Z" transform="translate(-387.24 -328.09)"/><path class="cls-25" d="M470.29,362.63a3.81,3.81,0,0,0,3.11-1.4,6.56,6.56,0,0,0,1.15-4.22,7.25,7.25,0,0,0-1.14-4.44,3.87,3.87,0,0,0-.69-.63,4.08,4.08,0,0,1,.34.37,7,7,0,0,1,1.19,4.45,6.43,6.43,0,0,1-1.15,4.17,3.83,3.83,0,0,1-3.11,1.39,4.42,4.42,0,0,1-2.59-.71,3.54,3.54,0,0,0,1.06.71A5,5,0,0,0,470.29,362.63Z" transform="translate(-387.24 -328.09)"/><path class="cls-26" d="M480,359.36s0-.93.08-2.47a10.2,10.2,0,0,1,0-1.13,4.51,4.51,0,0,1,.77-2.11,4.1,4.1,0,0,1,1.3-1.18,4.82,4.82,0,0,1,2.45-.57,6,6,0,0,0-.88.13,6.25,6.25,0,0,0-.93.26,4.06,4.06,0,0,0-1.77,1.47,4.52,4.52,0,0,0-.66,1.52,9.61,9.61,0,0,0-.18,1.5c-.05.65-.05,1-.13,1.84C480.08,358.9,480,359.36,480,359.36Z" transform="translate(-387.24 -328.09)"/><path class="cls-27" d="M489.14,354.48a1.69,1.69,0,0,1,.2-.75,2.85,2.85,0,0,1,.65-.87,3.28,3.28,0,0,1,.87-.56,3.66,3.66,0,0,1,1.08-.35l-.37.15a5.16,5.16,0,0,0-.91.46,3.28,3.28,0,0,0-.71.6,4,4,0,0,0-.48.71C489.25,354.25,489.17,354.49,489.14,354.48Z" transform="translate(-387.24 -328.09)"/><path class="cls-28" d="M488.6,360.72a2.44,2.44,0,0,1,.12-1,3.24,3.24,0,0,1,.67-1.2,3.71,3.71,0,0,1,1.4-.95,5.29,5.29,0,0,1,1.38-.41s-.27.06-.67.21a5.15,5.15,0,0,0-1.06.49,3.62,3.62,0,0,0-.83.68,3,3,0,0,0-.61,1c-.07.19-.17.52-.26.81A1.64,1.64,0,0,1,488.6,360.72Z" transform="translate(-387.24 -328.09)"/><path class="cls-29" d="M502,349a1.47,1.47,0,0,1,.18-.71,1.52,1.52,0,0,1,1.64-.9,1.71,1.71,0,0,0-.43.05,1.53,1.53,0,0,0-.58.27,1.63,1.63,0,0,0-.26.25,2.41,2.41,0,0,0-.3.43A5.22,5.22,0,0,0,502,349Z" transform="translate(-387.24 -328.09)"/><path class="cls-30" d="M502.22,357.6s0-1.7,0-5.09v-.18l0,0h.17a5,5,0,0,1,.72,0,1.58,1.58,0,0,1,.36.06h-.87l-.26,0C502.29,355.88,502.24,357.6,502.22,357.6Z" transform="translate(-387.24 -328.09)"/><path class="cls-31" d="M510.21,363A5.81,5.81,0,0,1,509,361a6.82,6.82,0,0,1-.45-2.51,8.23,8.23,0,0,1,.4-2.63,5.93,5.93,0,0,1,1.17-2.06,5.23,5.23,0,0,1,1.88-1.35,6.36,6.36,0,0,1,2.54-.48,5.85,5.85,0,0,1,2.17.41,5.25,5.25,0,0,1,1.23.68l-.06-.05a5.24,5.24,0,0,0-1.38-.81,5.85,5.85,0,0,0-2.17-.41,6.36,6.36,0,0,0-2.54.48,5.23,5.23,0,0,0-1.88,1.35,5.93,5.93,0,0,0-1.17,2.06,8.23,8.23,0,0,0-.4,2.63,6.82,6.82,0,0,0,.45,2.51,5.81,5.81,0,0,0,1.22,1.94q.18.19.38.36l.16.13Z" transform="translate(-387.24 -328.09)"/><path class="cls-32" d="M514.46,362.48a2.64,2.64,0,0,0,2.17-1,4.67,4.67,0,0,0,.8-3,5.16,5.16,0,0,0-.8-3.13,2.71,2.71,0,0,0-.48-.44,2.87,2.87,0,0,1,.24.26,5,5,0,0,1,.83,3.14,4.57,4.57,0,0,1-.8,2.94,2.66,2.66,0,0,1-2.17,1,3.05,3.05,0,0,1-1.8-.5,2.46,2.46,0,0,0,.74.5A3.41,3.41,0,0,0,514.46,362.48Z" transform="translate(-387.24 -328.09)"/><path class="cls-33" d="M531.22,362.73v-5a3.45,3.45,0,0,0-.67-2.37l-.15-.15a3.48,3.48,0,0,1,.65,2.35v5a2,2,0,0,0,.63,1.49l0,0A2,2,0,0,1,531.22,362.73Z" transform="translate(-387.24 -328.09)"/><path class="cls-34" d="M532.15,353.23a4.6,4.6,0,0,0-1.65-1.06,5.66,5.66,0,0,0-2-.35,6,6,0,0,0-2.44.46,4.72,4.72,0,0,0-1.69,1.21,5.1,5.1,0,0,0-1,1.71,6,6,0,0,0-.33,1.95v5.36s0,.08,0,.12q0-.3,0-.6c0-.85.07-1.65.14-2.39V357.3a6,6,0,0,1,.33-1.95,5.1,5.1,0,0,1,1-1.71,4.72,4.72,0,0,1,1.69-1.21,6,6,0,0,1,2.44-.46,5.66,5.66,0,0,1,2,.35,4.6,4.6,0,0,1,1.61,1Z" transform="translate(-387.24 -328.09)"/><path class="cls-35" d="M492.39,362.19s.22.1.46.17a2.46,2.46,0,0,0,.76.09,2.72,2.72,0,0,0,1.2-.18,1.9,1.9,0,0,0,.69-.48,2.07,2.07,0,0,0,.46-1,3.61,3.61,0,0,0,.05-1c0-.4-.08-.68-.06-.68a2.31,2.31,0,0,1,.15.6,3.09,3.09,0,0,1,0,1.21,2.51,2.51,0,0,1-.28.73,1.8,1.8,0,0,1-1.21.92,2.72,2.72,0,0,1-1.16.06,2.67,2.67,0,0,1-.85-.27A1.05,1.05,0,0,1,492.39,362.19Z" transform="translate(-387.24 -328.09)"/></g></g></svg>