<svg id="Layer_1" data-name="Layer 1" xmlns="http://www.w3.org/2000/svg" xmlns:xlink="http://www.w3.org/1999/xlink" viewBox="0 0 50 50"><defs><style>.cls-1{fill:#fff;}.cls-2{fill:url(#linear-gradient);}.cls-3{fill:url(#linear-gradient-2);}.cls-4{fill:url(#linear-gradient-3);}</style><linearGradient id="linear-gradient" x1="1014.54" y1="907.69" x2="1020.69" y2="900.36" gradientUnits="userSpaceOnUse"><stop offset="0" stop-color="#f9b00b"/><stop offset="1" stop-color="#830cd2"/></linearGradient><linearGradient id="linear-gradient-2" x1="1008.43" y1="914.96" x2="1026.79" y2="893.09" xlink:href="#linear-gradient"/><linearGradient id="linear-gradient-3" x1="1001.54" y1="923.18" x2="1033.68" y2="884.88" xlink:href="#linear-gradient"/></defs><title>instagram icon</title><circle class="cls-1" cx="25" cy="25" r="16.79"/><path class="cls-2" d="M1022.4,904a4.79,4.79,0,1,1-4.79-4.79A4.79,4.79,0,0,1,1022.4,904Z" transform="translate(-992.61 -879.03)"/><path class="cls-3" d="M1028.8,895.56a4.75,4.75,0,0,0-2.72-2.72,7.94,7.94,0,0,0-2.67-.49c-1.51-.07-2-.08-5.8-.08s-4.29,0-5.8.08a8,8,0,0,0-2.67.49,4.76,4.76,0,0,0-2.72,2.72,8,8,0,0,0-.49,2.67c-.07,1.51-.08,2-.08,5.8s0,4.29.08,5.8a7.94,7.94,0,0,0,.49,2.67,4.75,4.75,0,0,0,2.72,2.72,7.93,7.93,0,0,0,2.67.49c1.51.07,2,.08,5.8.08s4.29,0,5.8-.08a7.93,7.93,0,0,0,2.67-.49,4.75,4.75,0,0,0,2.72-2.72,8,8,0,0,0,.49-2.67c.07-1.51.08-2,.08-5.8s0-4.29-.08-5.8A7.93,7.93,0,0,0,1028.8,895.56Zm-11.19,15.84A7.37,7.37,0,1,1,1025,904,7.37,7.37,0,0,1,1017.61,911.4Zm7.66-13.31a1.72,1.72,0,1,1,1.72-1.72A1.72,1.72,0,0,1,1025.28,898.09Z" transform="translate(-992.61 -879.03)"/><path class="cls-4" d="M1017.61,879a25,25,0,1,0,25,25A25,25,0,0,0,1017.61,879Zm14.27,30.92a10.53,10.53,0,0,1-.67,3.48,7.34,7.34,0,0,1-4.2,4.2,10.54,10.54,0,0,1-3.48.67c-1.53.07-2,.09-5.92.09s-4.39,0-5.92-.09a10.54,10.54,0,0,1-3.48-.67,7.34,7.34,0,0,1-4.2-4.2,10.53,10.53,0,0,1-.67-3.48c-.07-1.53-.09-2-.09-5.92s0-4.39.09-5.92a10.53,10.53,0,0,1,.67-3.48,7.35,7.35,0,0,1,4.2-4.2,10.54,10.54,0,0,1,3.48-.67c1.53-.07,2-.09,5.92-.09s4.39,0,5.92.09a10.54,10.54,0,0,1,3.48.67,7.34,7.34,0,0,1,4.2,4.2,10.53,10.53,0,0,1,.67,3.48c.07,1.53.09,2,.09,5.92S1032,908.41,1031.88,909.94Z" transform="translate(-992.61 -879.03)"/></svg>