<svg id="Layer_1" data-name="Layer 1" xmlns="http://www.w3.org/2000/svg" viewBox="0 0 50 50"><defs><style>.cls-1{fill:#0e76a8;}.cls-2{fill:#fff;}</style></defs><title>linkedin icon</title><path class="cls-1" d="M883.74,879a25,25,0,1,1-25,25A25,25,0,0,1,883.74,879Z" transform="translate(-858.74 -879.03)"/><path class="cls-2" d="M872.83,913.38h4.68v-15.6h-4.68Zm18.24-16.14a7,7,0,0,0-5.75,2.66v-2.17h-4.7v15.65h4.7v-8.47a3.72,3.72,0,0,1,3.69-3.53c2.05,0,2.56,1.75,2.56,3.49v8.51h4.68v-8.86C896.25,898.37,893.34,897.23,891.06,897.23Zm-15.92-1a2.34,2.34,0,1,0-2.34-2.34A2.34,2.34,0,0,0,875.14,896.21Z" transform="translate(-858.74 -879.03)"/></svg>