<svg id="Layer_1" data-name="Layer 1" xmlns="http://www.w3.org/2000/svg" viewBox="0 0 21.39 18.8"><title>love icon</title><path d="M969.28,321.34a5.66,5.66,0,0,0-5,3.38,5.66,5.66,0,0,0-5-3.38,5.83,5.83,0,0,0-5.68,6.12c0,4.45,4.24,7.24,10.28,12.52a.63.63,0,0,0,.83,0c6-5.28,10.28-8.08,10.28-12.52a5.83,5.83,0,0,0-5.68-6.12Zm-5,17.34c-5.56-4.83-9.44-7.51-9.44-11.22a4.56,4.56,0,0,1,4.43-4.87c2.43,0,3.94,2.25,4.41,3.93a.63.63,0,0,0,1.21,0c.46-1.65,2-3.93,4.41-3.93a4.56,4.56,0,0,1,4.43,4.87C973.71,331.17,969.82,333.85,964.27,338.68Z" transform="translate(-953.57 -321.34)"/></svg>