<svg id="Layer_1" data-name="Layer 1" xmlns="http://www.w3.org/2000/svg" viewBox="0 0 75 48.91"><defs><style>.cls-1{fill:#265697;}.cls-2{fill:#dfac16;}.cls-3{fill:#bf3126;}.cls-4{fill:#fff;}</style></defs><title>masterproduct icon</title><g id="Page-1"><g id="Master"><g id="Group_143" data-name="Group 143"><path id="Path_210" data-name="Path 210" class="cls-1" d="M1562.21,596.79h75V547.87h-75Z" transform="translate(-1562.21 -547.87)"/><path id="Path_211" data-name="Path 211" class="cls-1" d="M1637.21,547.87h0" transform="translate(-1562.21 -547.87)"/></g><path id="path2268" class="cls-2" d="M1632.32,572.49c0,11.41-8.64,20.54-19.57,20.54s-19.57-9.13-19.57-20.54h0c0-11.41,8.64-20.54,19.57-20.54C1623.51,551.95,1632.32,561.24,1632.32,572.49Z" transform="translate(-1562.21 -547.87)"/><path id="path1350" class="cls-3" d="M1586.5,551.95c-10.76.16-19.4,9.29-19.4,20.54,0,11.41,8.64,20.54,19.57,20.54a19.64,19.64,0,0,0,13.21-5.38h0a28.39,28.39,0,0,0,2-2.28h-3.91a23.85,23.85,0,0,1-1.47-2.12h6.85a10,10,0,0,0,1.14-2.28h-9.13c-.33-.65-.49-1.47-.82-2.12h10.76a21.79,21.79,0,0,0,1-6.52,20.24,20.24,0,0,0-.49-4.4h-11.9c.16-.65.33-1.47.49-2.12h10.76a19.77,19.77,0,0,0-.82-2.28h-9.13a13.48,13.48,0,0,1,1.14-2.12h6.85a23.85,23.85,0,0,0-1.47-2.12h-3.91c.65-.65,1.3-1.47,2-2.12a18.93,18.93,0,0,0-13-5.38Z" transform="translate(-1562.21 -547.87)"/><path id="path4157" class="cls-4" d="M1593.67,577.87l.33-1.79h-.49c-.65,0-.82-.33-.82-.65l.49-3.75h1.14l.33-2.12h-1l.16-1.3h-2.12s-1.14,7.17-1.14,8c0,1.3.65,1.79,1.63,1.79C1592.86,578,1593.35,577.87,1593.67,577.87Z" transform="translate(-1562.21 -547.87)"/><path id="path4155" class="cls-4" d="M1594.33,574.29c0,3.1,2,3.75,3.59,3.75a6.69,6.69,0,0,0,2.28-.33l.33-2.12a6.68,6.68,0,0,1-2.28.49c-2.28,0-1.79-1.79-1.79-1.79h4.24a15.78,15.78,0,0,0,.33-2,2.77,2.77,0,0,0-2.93-3.1C1595.79,569.23,1594.33,571.68,1594.33,574.29Zm3.59-3.1c1.14,0,1,1.3,1,1.47h-2.28C1596.61,572.49,1596.77,571.19,1597.91,571.19Z" transform="translate(-1562.21 -547.87)"/><path id="path4151" class="cls-4" d="M1611.12,577.87l.33-2.45a4.88,4.88,0,0,1-1.79.49c-1.47,0-2.12-1.14-2.12-2.45,0-2.61,1.3-4.08,2.61-4.08a3.41,3.41,0,0,1,2,.65l.33-2.28a8.07,8.07,0,0,0-2.28-.49c-2.45,0-4.73,2.28-4.73,6.36,0,2.77,1.3,4.57,3.75,4.57C1610,578,1611.12,577.87,1611.12,577.87Z" transform="translate(-1562.21 -547.87)"/><path id="path4149" class="cls-4" d="M1582.26,569.23a7.31,7.31,0,0,0-2.61.49l-.33,2a6.69,6.69,0,0,1,2.28-.33c.82,0,1.3.16,1.3.65v.49h-.82c-1.79,0-3.75.82-3.75,3.26,0,2,1.14,2.28,2,2.28a2.58,2.58,0,0,0,2.12-1v.82h1.79l.82-6a2.5,2.5,0,0,0-2.77-2.61Zm.33,4.89c0,.33-.16,2.12-1.47,2.12a.76.76,0,0,1-.82-.82c0-.65.33-1.3,1.79-1.3Z" transform="translate(-1562.21 -547.87)"/><path id="path4145" class="cls-4" d="M1587,578a2.64,2.64,0,0,0,3.1-2.77c0-2.77-2.45-2.12-2.45-3.26,0-.49.49-.65,1.14-.65.33,0,1.47.16,1.47.16l.33-2a11,11,0,0,0-2-.16c-1.47,0-3.1.65-3.1,2.77,0,2.45,2.61,2.28,2.61,3.26,0,.65-.82.82-1.3.82a5.38,5.38,0,0,1-1.79-.33l-.33,2A9,9,0,0,0,1587,578Z" transform="translate(-1562.21 -547.87)"/><path id="path4139" class="cls-4" d="M1628.24,567.44l-.49,2.93a2.79,2.79,0,0,0-2-1.14c-2,0-3.42,2.45-3.42,5.22,0,1.79.82,3.59,2.61,3.59a2.45,2.45,0,0,0,2-1l-.16.82h2l1.63-10.43Zm-1,5.71c0,1.14-.49,2.77-1.63,2.77-.82,0-1.14-.65-1.14-1.79,0-1.63.65-2.77,1.63-2.77C1626.94,571.35,1627.26,572,1627.26,573.15Z" transform="translate(-1562.21 -547.87)"/><path id="path4133" class="cls-4" d="M1571,577.87l1.3-7.83.16,7.83h1.47l2.61-7.83-1.14,7.83h2.12l1.63-10.43h-3.26l-2.12,6.52-.16-6.52h-3.1l-1.63,10.43Z" transform="translate(-1562.21 -547.87)"/><path id="path4131" class="cls-4" d="M1603,578c.65-3.59.65-6.52,2.12-6a6.07,6.07,0,0,1,.82-2.61h-.49c-1,0-1.63,1.3-1.63,1.3l.16-1.3h-2l-1.3,8.48H1603Z" transform="translate(-1562.21 -547.87)"/><path id="path4149-2" data-name="path4149" class="cls-4" d="M1615.85,569.23a7.31,7.31,0,0,0-2.61.49l-.33,2a6.69,6.69,0,0,1,2.28-.33c.82,0,1.3.16,1.3.65v.49h-.82c-1.79,0-3.75.82-3.75,3.26,0,2,1.14,2.28,2,2.28a2.58,2.58,0,0,0,2.12-1v.82h1.79l.82-6C1618.78,569.4,1616.66,569.23,1615.85,569.23Zm.49,4.89c0,.33-.16,2.12-1.47,2.12a.76.76,0,0,1-.82-.82c0-.65.33-1.3,1.79-1.3Z" transform="translate(-1562.21 -547.87)"/><path id="path4131-2" data-name="path4131" class="cls-4" d="M1620.41,578c.65-3.59.65-6.52,2.12-6a6.07,6.07,0,0,1,.82-2.61h-.49c-1,0-1.63,1.3-1.63,1.3l.16-1.3h-2l-1.3,8.48h2.28Z" transform="translate(-1562.21 -547.87)"/></g></g></svg>