<svg id="Layer_1" data-name="Layer 1" xmlns="http://www.w3.org/2000/svg" viewBox="0 0 120 117.31"><defs><style>.cls-1{fill:#243b5e;}.cls-2{fill:#bababa;}</style></defs><title>news letter sms icon</title><path class="cls-1" d="M714.28,672V609.56a2.29,2.29,0,0,1,.78-1.72l57.39-50.24a2.29,2.29,0,0,1,3,0l58,47.57a2.29,2.29,0,0,1,.84,1.77V672a2.29,2.29,0,0,1-2.29,2.29H716.57A2.29,2.29,0,0,1,714.28,672Z" transform="translate(-714.28 -557.02)"/><path class="cls-2" d="M827,612l-1.47-.85a1,1,0,0,0-1,0l-21.07,11a1,1,0,0,1-1.45-.88v-22a1,1,0,0,0-1-1H748.3a1,1,0,0,0-1,1v21.48a1,1,0,0,1-1.46.88L724.4,610.2a1,1,0,0,0-1.32.37l-.84,1.43a1,1,0,0,0,.4,1.39L774.51,640a1,1,0,0,0,.9,0L827,613.74A1,1,0,0,0,827,612Zm-31.08,10.91a1,1,0,0,1-1,1H752.43a1,1,0,0,1-1-1v-.7a1,1,0,0,1,1-1H795a1,1,0,0,1,1,1Zm0-8.44a1,1,0,0,1-1,1H752.43a1,1,0,0,1-1-1v-.7a1,1,0,0,1,1-1H795a1,1,0,0,1,1,1Zm0-8.54a1,1,0,0,1-1,1H752.43a1,1,0,0,1-1-1v-.7a1,1,0,0,1,1-1H795a1,1,0,0,1,1,1Z" transform="translate(-714.28 -557.02)"/><path class="cls-2" d="M723,666l38.38-20.42a.93.93,0,0,1,1.2.3l.71,1.05a.93.93,0,0,1-.34,1.34l-38.11,20a.93.93,0,0,1-1-.06l-1-.67A.93.93,0,0,1,723,666Z" transform="translate(-714.28 -557.02)"/><path class="cls-2" d="M784.52,646.68l.82-1.41a.91.91,0,0,1,1.2-.35L826,665.43a.91.91,0,0,1,.31,1.34L825,668.63a.91.91,0,0,1-1.16.26l-38.94-21A.91.91,0,0,1,784.52,646.68Z" transform="translate(-714.28 -557.02)"/></svg>