<svg id="Layer_1" data-name="Layer 1" xmlns="http://www.w3.org/2000/svg" viewBox="0 0 50 50"><defs><style>.cls-1{fill:#c8232c;}.cls-2{fill:#fff;}</style></defs><title>pintarest icon</title><path class="cls-1" d="M1086,879a25,25,0,1,1-25,25A25,25,0,0,1,1086,879Z" transform="translate(-1060.98 -879.03)"/><path class="cls-2" d="M1086.74,890c-8.81,0-13.25,6.12-13.25,11.21,0,3.09,1.21,5.83,3.8,6.86a.64.64,0,0,0,.93-.45l.38-1.44a.85.85,0,0,0-.27-1,5.06,5.06,0,0,1-1.22-3.52c0-4.54,3.5-8.6,9.13-8.6,5,0,7.71,2.95,7.71,6.88,0,5.18-2.37,9.54-5.88,9.54a2.81,2.81,0,0,1-2.92-3.46c.56-2.27,1.64-4.73,1.64-6.37a2.44,2.44,0,0,0-2.5-2.7c-2,0-3.57,2-3.57,4.65a6.71,6.71,0,0,0,.59,2.84l-2.39,9.78a19.54,19.54,0,0,0-.05,6.82.25.25,0,0,0,.44.1,19,19,0,0,0,3.35-5.88c.23-.8,1.3-4.93,1.3-4.93a5.36,5.36,0,0,0,4.53,2.24c6,0,10-5.26,10-12.3C1098.47,894.93,1093.82,890,1086.74,890Z" transform="translate(-1060.98 -879.03)"/></svg>