<svg id="Layer_1" data-name="Layer 1" xmlns="http://www.w3.org/2000/svg" viewBox="0 0 75 48.91"><defs><style>.cls-1{fill:#8b3392;}.cls-2{fill:#fff;}</style></defs><title>rocket icon</title><g id="rocket"><rect id="Rectangle_219" data-name="Rectangle 219" class="cls-1" width="75" height="48.91"/><path id="Path_136" data-name="Path 136" class="cls-2" d="M1519.29,556.22l-8.8,9.29.49,5.22,1.63-3.58,5.05,6.85,7.17-22.83-23.64,10.27,6.36,3.42Z" transform="translate(-1467.11 -547.74)"/><g id="Group_116" data-name="Group 116"><path id="Path_137" data-name="Path 137" class="cls-2" d="M1511.62,572.52h-9.29c-7.17,1.14-7.83,12.07-.16,13.53h9.46v-9.78c3.1.16,3.75,4.24,1.47,5.71.49.65,2.28,2.77,2.28,2.77C1520.27,580.19,1517.49,573,1511.62,572.52Zm-3.59,9.78h-5.22c-3.26.16-4.24-5.38-.32-6.2H1508v6.2Z" transform="translate(-1467.11 -547.74)"/></g><path id="Path_138" data-name="Path 138" class="cls-2" d="M1531.19,577.41h-3.42L1526.3,581h4.4a.65.65,0,1,1,0,1.3H1523v-6.2h11.74v-3.75H1533c-.49-7.66-9.13-7.83-11.41-3.75.49.32,2.61,2.28,2.61,2.28a3,3,0,0,1,5.54,1.3h-9.95v13.54H1531a3.83,3.83,0,0,0,3.91-3.74v0A4.71,4.71,0,0,0,1531.19,577.41Z" transform="translate(-1467.11 -547.74)"/><path id="Path_139" data-name="Path 139" class="cls-2" d="M1497.77,572.52h-4.57c-1.47,1.79-3.91,9.29,1,14.84,0,0,2.12-2,2.61-2.28A9.31,9.31,0,0,1,1497.77,572.52Z" transform="translate(-1467.11 -547.74)"/><circle id="Ellipse_12" data-name="Ellipse 12" class="cls-2" cx="16.3" cy="39.78" r="2.93"/><g id="Group_118" data-name="Group 118"><g id="Group_117" data-name="Group 117"><path id="Path_140" data-name="Path 140" class="cls-2" d="M1480.16,572.52c-7.17,1.14-7.83,12.07-.16,13.53h.16a3.55,3.55,0,0,1,3.26-2.28,3.47,3.47,0,0,1,3.26,2.28h2.93V572.52Zm5.87,9.78h-5.22c-3.26.16-4.24-5.38-.32-6.2H1486v6.2Z" transform="translate(-1467.11 -547.74)"/></g></g><g id="Group_124" data-name="Group 124"><g id="Group_120" data-name="Group 120"><g id="Group_119" data-name="Group 119"><path id="Path_141" data-name="Path 141" class="cls-2" d="M1483.58,569.43a1.73,1.73,0,0,0-.16-3.26h-3.1v4.73h1.3v-1.47l1.47,1.47h1.79Zm-.16-1.63a.35.35,0,0,1-.32.32h-1.47v-.65h1.47c.16,0,.32,0,.32.32Z" transform="translate(-1467.11 -547.74)"/></g></g><g id="Group_122" data-name="Group 122"><g id="Group_121" data-name="Group 121"><path id="Path_142" data-name="Path 142" class="cls-2" d="M1487,566a2.45,2.45,0,1,0,2.28,2.45A2.37,2.37,0,0,0,1487,566Zm0,3.42a1.05,1.05,0,0,1-1-1,.94.94,0,0,1,.9-1h.08a1.05,1.05,0,0,1,1,1C1488.15,569.1,1487.66,569.43,1487,569.43Z" transform="translate(-1467.11 -547.74)"/></g></g><path id="Path_143" data-name="Path 143" class="cls-2" d="M1500,567.47h2.12v-1.3h-1.79a2.45,2.45,0,0,0,0,4.89h1.79v-1.3H1500c-.32,0-.49-.16-.82-.32H1502v-1.31h-2.77A.83.83,0,0,1,1500,567.47Z" transform="translate(-1467.11 -547.74)"/><g id="Group_123" data-name="Group 123"><path id="Path_144" data-name="Path 144" class="cls-2" d="M1491.9,569.43a1.05,1.05,0,0,1-1-1h0a1.05,1.05,0,0,1,1-1h2v-1.3h-1.79a2.45,2.45,0,0,0,0,4.89h1.79v-1.3l-2-.32Z" transform="translate(-1467.11 -547.74)"/></g><path id="Path_145" data-name="Path 145" class="cls-2" d="M1506.73,566.16h-4.4v1.3H1504v3.26h1.3v-3.26h1.46Z" transform="translate(-1467.11 -547.74)"/><path id="Path_146" data-name="Path 146" class="cls-2" d="M1496.3,568.45l2.12-2.28h-1.63l-1.3,1.3v-1.3h-1.14v4.57h1.14v-1.3l1.3,1.3h1.79Z" transform="translate(-1467.11 -547.74)"/></g><g id="Group_125" data-name="Group 125"><path id="Path_147" data-name="Path 147" class="cls-2" d="M1514.07,588.33c-.16,0-.32.16-.49.32s-.16.32-.16.65c0,.16,0,.16.16.32a.57.57,0,0,0,.16.32.16.16,0,0,0,.16-.16h0l.16.32c-.16,0-.16.16-.32.16a.6.6,0,0,1-.49-.16c-.16,0-.16-.16-.16-.32v-.49a1.41,1.41,0,0,1,.48-1l.32-.32h.32l-.16.32Z" transform="translate(-1467.11 -547.74)"/><path id="Path_148" data-name="Path 148" class="cls-2" d="M1516,588.33v2h-.32V590c0-.16,0-.16-.16-.32s-.16-.16-.32-.16c-.16-.16-.16-.16-.32-.16s-.16,0-.32.16h0a.16.16,0,0,0,.16.16h.17a.51.51,0,0,0,.32-.16l.16.32c-.49.32-.49.32-.65.32s-.16,0-.32-.16c-.16,0-.16-.16-.16-.32v-.16c0-.16.16-.32.32-.49s.16-.16.32-.16h0l-.32-.32h-.49v-.17h-.18V588h2.45v.32Zm-.32,0h-.82a.85.85,0,0,1,.32.65c.16,0,.32.16.49.32Z" transform="translate(-1467.11 -547.74)"/><path id="Path_149" data-name="Path 149" class="cls-2" d="M1516.84,588.33v2h-.32v-2h-.32V588h.82v.32Z" transform="translate(-1467.11 -547.74)"/><path id="Path_150" data-name="Path 150" class="cls-2" d="M1518.64,588.33H1517V588h2.12v.32H1519v2h-.32q0-.24-.49-.49c-.16-.16-.32-.16-.49-.32a.6.6,0,0,0-.49-.16L1517,589c.16,0,.32-.16.65-.32C1518,588.67,1518.15,588.5,1518.64,588.33Zm0,.32a.16.16,0,0,0-.16.16h0c-.16,0-.32.17-.65.32h-.16c.32.16.49.32.82.49h.16v-1Z" transform="translate(-1467.11 -547.74)"/><path id="Path_151" data-name="Path 151" class="cls-2" d="M1519.61,588.33v2h-.32v-2H1519V588h.82v.32Z" transform="translate(-1467.11 -547.74)"/><path id="Path_152" data-name="Path 152" class="cls-2" d="M1519.78,588.34V588h1.14a.57.57,0,0,0-.16-.32h-.66l-.16.16-.16-.32a.6.6,0,0,1,.49-.16h.32c.16,0,.16,0,.32.16a.85.85,0,0,1,.32.65h.16v.32h-1.61Zm1.3,2.28c-.16-.16-.32-.32-.49-.32s-.16-.16-.49-.16c-.16,0-.16-.16-.32-.16v-.49h.82c.16-.16.32-.16.32-.32s0-.16-.16-.16a.16.16,0,0,1-.16-.16h-.16a.16.16,0,0,0-.16.16h0c0,.17.16.17.32.17l-.16.32c-.16,0-.16,0-.16-.16a.51.51,0,0,1-.16-.32.57.57,0,0,1,.16-.32c.16,0,.32-.16.49-.16h.16a.16.16,0,0,1,.16.16h0a.85.85,0,0,1,.32.65c0,.16-.16.32-.16.49a.6.6,0,0,1-.49.16.57.57,0,0,0,.32.16l.49.49Z" transform="translate(-1467.11 -547.74)"/><path id="Path_153" data-name="Path 153" class="cls-2" d="M1523.69,588.34v2h-.32v-.82a.16.16,0,0,0-.16-.16h0l-.16-.16a.16.16,0,0,0-.16.16h0a.16.16,0,0,1-.16.16h-.33c0-.16,0-.16-.16-.32a.16.16,0,0,0-.16-.16h-.18l-.16.16v.16h0a.35.35,0,0,0,.32.32h.16l-.16.49h-.16a.6.6,0,0,1-.49-.16.57.57,0,0,1-.16-.32v-.32a.58.58,0,0,1,.49-.65h.16c.16,0,.32.16.49.32.16-.16.32-.32.49-.32s.16,0,.16.16v-.67h-2v-.32h2.61Z" transform="translate(-1467.11 -547.74)"/><path id="Path_154" data-name="Path 154" class="cls-2" d="M1526.46,588.33h-1.63V588h2.28v.32H1527v2h-.32q0-.24-.49-.49c-.16-.16-.32-.16-.49-.32a.6.6,0,0,0-.49-.16L1525,589c.16,0,.32-.16.65-.32A2.75,2.75,0,0,0,1526.46,588.33Zm0,.32a.16.16,0,0,0-.16.16h0c-.16,0-.32.17-.65.32h-.16c.32.16.49.32.82.49h.16v-1Z" transform="translate(-1467.11 -547.74)"/><path id="Path_155" data-name="Path 155" class="cls-2" d="M1527.76,588.33a.6.6,0,0,0-.16.49,1.63,1.63,0,0,0,.16.65c0,.16.16.32.16.49s-.16.32-.32.49h-.32v-.32a.35.35,0,0,0,.32-.32c0-.16,0-.16-.16-.49a.82.82,0,0,1,0-1h-.32V588h1v.31Z" transform="translate(-1467.11 -547.74)"/><path id="Path_156" data-name="Path 156" class="cls-2" d="M1528.58,588.33v2h-.32v-2h-.32V588h.82v.32Z" transform="translate(-1467.11 -547.74)"/><path id="Path_157" data-name="Path 157" class="cls-2" d="M1529.4,589.15a.69.69,0,0,1-.49-1.14c.16-.16.16-.16.49-.16.16,0,.32.16.49.32v.32c0,.16,0,.32-.16.32C1529.72,589.15,1529.56,589.15,1529.4,589.15Zm.49,1.3a6.21,6.21,0,0,1-1-.82v-.49a4.85,4.85,0,0,1,1.3,1.14v.32Zm-.49-2h0c-.16,0-.32,0-.32.16v.16l.16.16h0a.16.16,0,0,0,.16-.16h0C1529.56,588.67,1529.56,588.5,1529.4,588.5Z" transform="translate(-1467.11 -547.74)"/><path id="Path_158" data-name="Path 158" class="cls-2" d="M1532.49,587.69a2.17,2.17,0,0,0-1.14-.49.85.85,0,0,0-.65.32c0,.16-.16.16-.16.32h.32v.32h-.32v2h-.32v-2H1530v-.32h.16a1.15,1.15,0,0,1,1-1h.32a1,1,0,0,1,.65.16c.16,0,.32.16.65.32Z" transform="translate(-1467.11 -547.74)"/><path id="Path_159" data-name="Path 159" class="cls-2" d="M1532.17,588.33h0a.6.6,0,0,1,.49.16c.16.16.32.32.32.49s0,.16-.16.32-.16.16-.32.16h-.32v-.32h.16c.16,0,.32,0,.32-.16s-.16-.32-.49-.32v1.63h-.32c0-.16-.16-.16-.16-.32l-.32-.32-.16-.16H1531a.57.57,0,0,1-.32-.16l-.16-.32c.16,0,.32-.16.49-.32a.51.51,0,0,0,.32-.16.57.57,0,0,1,.32-.16h-1.15V588h2.61v.3Zm-.32.49a.57.57,0,0,1-.32.16l-.16.16-.16.16.16.16.32.32.16-1Z" transform="translate(-1467.11 -547.74)"/><path id="Path_160" data-name="Path 160" class="cls-2" d="M1533.63,589.15a.69.69,0,0,1-.49-1.14c.16-.16.16-.16.49-.16.16,0,.32.16.49.32v.32c0,.16,0,.32-.16.32C1534,589.15,1533.8,589.15,1533.63,589.15Zm.49,1.3a6.21,6.21,0,0,1-1-.82v-.49a4.85,4.85,0,0,1,1.3,1.14v.32Zm-.32-2h0c-.16,0-.32,0-.32.16v.16l.16.16h0a.16.16,0,0,0,.16-.16h0a.23.23,0,0,0,0-.32h0Z" transform="translate(-1467.11 -547.74)"/></g><g id="Group_133" data-name="Group 133"><path id="Path_161" data-name="Path 161" class="cls-2" d="M1492.71,590.45l.65.16.32-.16-.82-.32Z" transform="translate(-1467.11 -547.74)"/><g id="Group_126" data-name="Group 126"><path id="Path_162" data-name="Path 162" class="cls-2" d="M1492.87,588.34v-.49h-5.38v.49h.82v1h.82a.57.57,0,0,1,.32-.16v.32a.35.35,0,0,1-.32.32H1488s-.16,0-.16-.32v-1h-.49v1.14c0,.16,0,.49.32.49h1.47a.73.73,0,0,0,.49-.49V588.5h-.32c0,.16,0,.32-.16.32h-.49v-.65h1.3V590h.49v-1.79h.49V590h1.47a.52.52,0,0,0,.49-.49v-1.14h-.32c0,.16,0,.32-.16.32h-1v-.49l1.47.16Zm-.65,1,.16-.16v.49a.57.57,0,0,1-.16.32h-1v-.65Z" transform="translate(-1467.11 -547.74)"/></g><rect id="Rectangle_220" data-name="Rectangle 220" class="cls-2" x="26.25" y="41.25" width="0.98" height="0.49"/><g id="Group_127" data-name="Group 127"><path id="Path_163" data-name="Path 163" class="cls-2" d="M1494.83,588v.49h1.47v.16h-1.47v1c0,.32.16.65.49.65h1.3V588.5h.32v1.79h.49V588Zm1.47,2h-1c-.16,0-.16-.16-.16-.32v-.49h1.14Z" transform="translate(-1467.11 -547.74)"/></g><path id="Path_164" data-name="Path 164" class="cls-2" d="M1499.4,588.33h1.79v.16h-.49c0,.16-.32.32-.32,0h-1v1.15c0,.16,0,.49.32.49h.82v-.32H1500a.16.16,0,0,1-.16-.16h0V589h.49v.32h.49V589c0-.16.49-.16.49,0v1.14h.49v-1.63h.32v1.79h.49V588h-2.93v.32Z" transform="translate(-1467.11 -547.74)"/><g id="Group_129" data-name="Group 129"><g id="Group_128" data-name="Group 128"><path id="Path_165" data-name="Path 165" class="cls-2" d="M1498.74,588.17h-1v.65a.52.52,0,0,0,.49.49h.82v-.82A.35.35,0,0,0,1498.74,588.17Zm-.16.49c-.16,0-.32,0-.32-.16s.16-.16.32-.16.32,0,.32.16A.51.51,0,0,1,1498.58,588.66Z" transform="translate(-1467.11 -547.74)"/></g></g><path id="Path_166" data-name="Path 166" class="cls-2" d="M1497.93,589.32v.49l1.14.49v-.49Z" transform="translate(-1467.11 -547.74)"/><g id="Group_131" data-name="Group 131"><g id="Group_130" data-name="Group 130"><path id="Path_167" data-name="Path 167" class="cls-2" d="M1508.69,588.17h-1v.65a.52.52,0,0,0,.49.49h.82v-.82A.35.35,0,0,0,1508.69,588.17Zm-.32.49c-.16,0-.32,0-.32-.16s.16-.16.32-.16.32,0,.32.16-.16.16-.33.16Z" transform="translate(-1467.11 -547.74)"/></g></g><path id="Path_168" data-name="Path 168" class="cls-2" d="M1507.71,589.32v.49l1.3.49v-.49Z" transform="translate(-1467.11 -547.74)"/><path id="Path_169" data-name="Path 169" class="cls-2" d="M1511.3,588.66v-.16h.82V588h-2.77v.49h1.47v.16h-1.47v1c0,.32.16.65.49.65h1.3v-1.14h.49v.16c0,.16,0,.16-.16.16h-.16v.32h.32a.57.57,0,0,0,.32-.16v-1Zm-.49,1.3h-1c-.16,0-.16-.16-.16-.32v-.49h1.14V590Z" transform="translate(-1467.11 -547.74)"/><g id="Group_132" data-name="Group 132"><path id="Path_170" data-name="Path 170" class="cls-2" d="M1503.63,588v.49h1.47v.16h-1.47v1c0,.32.16.65.49.65h1.3V588.5h.49l-.16.32V589h.32c.16,0,.16.16.16.49,0,.16,0,.32-.16.32h-.32v.32h.32c.16,0,.49,0,.49-.32,0-.82.16-1.14-.49-1.14l.16-.32h.65v1.79h.5v-2.28Zm1.47,2h-1c-.16,0-.16-.16-.16-.32v-.49h1.14Z" transform="translate(-1467.11 -547.74)"/></g></g></g></svg>