<svg id="_x33_0" enable-background="new 0 0 64 64" height="512" viewBox="0 0 64 64" width="512" xmlns="http://www.w3.org/2000/svg"><g><path d="m15 48.816v2.184h2v-2h2v-3c0-1.654-1.346-3-3-3-.552 0-1-.448-1-1v-1h1c.552 0 1 .448 1 1v1h2v-1c0-1.302-.839-2.402-2-2.816v-2.184h-2v2h-2v3c0 1.654 1.346 3 3 3 .552 0 1 .448 1 1v1h-1c-.552 0-1-.448-1-1v-1h-2v1c0 1.302.839 2.402 2 2.816z"/><path d="m32.597 41h-1.899c-1.394-6.839-7.454-12-14.698-12-8.271 0-15 6.729-15 15s6.729 15 15 15h3.184c-.112.314-.184.648-.184 1 0 1.654 1.346 3 3 3h10.597c4.216 0 8.353-1.403 11.698-3.961l18.705 2.078v-18.234l-18.705 2.078c-3.346-2.558-7.483-3.961-11.698-3.961zm12.403 13.816c.314.112.648.184 1 .184 1.302 0 2.402-.839 2.816-2h2.184v4.771l-6-.667zm0-2.816c0-.552.448-1 1-1s1 .448 1 1-.448 1-1 1-1-.448-1-1zm6-1h-2.184c-.414-1.161-1.514-2-2.816-2-.352 0-.686.072-1 .184v-2.289l6-.667zm-44-7c0-4.963 4.037-9 9-9s9 4.037 9 9-4.037 9-9 9-9-4.037-9-9zm10 10.949c2.283-.207 4.366-1.111 6.034-2.501l1.413 1.413c-2.036 1.747-4.615 2.871-7.447 3.088zm7.448-3.915c1.391-1.667 2.294-3.751 2.501-6.034h2c-.217 2.833-1.341 5.411-3.088 7.447zm2.501-8.034c-.207-2.283-1.111-4.366-2.501-6.034l1.413-1.413c1.747 2.036 2.871 4.615 3.088 7.447zm-3.915-7.448c-1.667-1.391-3.751-2.294-6.034-2.501v-2c2.833.217 5.411 1.341 7.447 3.088zm-8.034-2.501c-2.283.207-4.366 1.111-6.034 2.501l-1.413-1.413c2.036-1.747 4.615-2.871 7.447-3.088zm-7.448 3.915c-1.391 1.668-2.294 3.751-2.501 6.034h-2c.217-2.833 1.341-5.411 3.088-7.447zm-2.501 8.034c.207 2.283 1.111 4.366 2.501 6.034l-1.413 1.413c-1.747-2.036-2.871-4.614-3.088-7.447zm3.915 7.448c1.667 1.391 3.751 2.294 6.034 2.501v2c-2.833-.217-5.411-1.341-7.447-3.088zm17.198 2.552h2.836v2h-5.548c.98-.564 1.887-1.237 2.712-2zm2.875-2h-1.067c.477-.632.912-1.296 1.285-2h.208c-.229.639-.371 1.31-.426 2zm1.496-4h-.41c.223-.627.418-1.266.556-1.928.399.108.747.344 1.01.671-.436.376-.818.802-1.156 1.257zm-8.535 12c-.552 0-1-.448-1-1s.448-1 1-1h9v-5.375c0-1.625.684-3.145 1.854-4.228.967 1.009 2.307 1.603 3.759 1.603h.387v-2h-.387c-1.23 0-2.335-.684-2.889-1.794-.558-1.121-1.586-1.883-2.78-2.12.027-.36.056-.719.056-1.086 0-.338-.029-.668-.051-1h1.647c3.747 0 7.418 1.249 10.403 3.507v10.987c-2.984 2.257-6.655 3.506-10.402 3.506zm39-2.117-8-.889v-11.988l8-.889z"/><path d="m28 17c1.654 0 3-1.346 3-3s-1.346-3-3-3-3 1.346-3 3 1.346 3 3 3zm0-4c.552 0 1 .449 1 1s-.448 1-1 1-1-.449-1-1 .448-1 1-1z"/><path d="m36 17c1.654 0 3-1.346 3-3s-1.346-3-3-3-3 1.346-3 3 1.346 3 3 3zm0-4c.552 0 1 .449 1 1s-.448 1-1 1-1-.449-1-1 .448-1 1-1z"/><path d="m44 17c1.654 0 3-1.346 3-3s-1.346-3-3-3-3 1.346-3 3 1.346 3 3 3zm0-4c.552 0 1 .449 1 1s-.448 1-1 1-1-.449-1-1 .448-1 1-1z"/><path d="m11.037 16.286 1.77 8.848c.216 1.081 1.174 1.866 2.277 1.866.963 0 1.836-.605 2.174-1.507l.935-2.493h16.876l.867 12.142c.074 1.042.95 1.858 1.995 1.858h1.468c1.978 0 3.681-1.477 3.96-3.435l1.508-10.565h12.47c3.123 0 5.663-2.54 5.663-5.663 0-1.064-.298-2.102-.861-3.001l-3.117-4.986c-.918-1.472-2.503-2.35-4.239-2.35h-36.369l-5-5c-1.291-1.29-3.536-1.291-4.829 0l-.326.328c-.812.811-1.259 1.89-1.259 3.037 0 .549.104 1.085.307 1.596zm4.348 8.506c-.102.269-.561.229-.617-.051l-1.548-7.741h4.087c.381 0 .693.311.693.693 0 .084-.015.166-.044.244zm27.606-2.802-1.613 11.292c-.14.98-.99 1.718-1.98 1.718h-1.468l-.924-12.938-.006-.131c0-.514.418-.931.931-.931h4.202c.478 0 .867.389.867.867 0 .04-.002.081-.009.123zm17.204-6.99h-7.195v-2h5.946zm-50.521-11.259.326-.326c.535-.535 1.465-.535 2 0l4.68 4.68-2.48 3.305 1.6 1.2 2.7-3.6h36.283c1.041 0 1.992.527 2.544 1.41l.369.59h-4.696c-1.103 0-2 .897-2 2v2c0 1.103.897 2 2 2h7.976c.011.112.024.224.024.337 0 2.02-1.644 3.663-3.663 3.663h-12.486c-.37-1.156-1.442-2-2.719-2h-4.202c-1.289 0-2.373.842-2.765 2h-16.222l.886-2.362c.113-.303.171-.621.171-.945 0-1.485-1.208-2.693-2.693-2.693h-4.63l-3.513-8.781c-.108-.273-.164-.56-.164-.854 0-.613.239-1.189.674-1.624z"/><path d="m1 25h10v2h-10z"/><path d="m3 21h4v2h-4z"/><path d="m1 17h8v2h-8z"/></g></svg>