<svg id="Layer_1" data-name="Layer 1" xmlns="http://www.w3.org/2000/svg" viewBox="0 0 26 27.75"><defs><style>.cls-1{fill:#d1d1d1;}</style></defs><title>sms sent icon</title><path class="cls-1" d="M953.54,617.65l25.14-15.88a.43.43,0,0,1,.66.42L976,628.93a.43.43,0,0,1-.62.33l-7.17-3.67a.43.43,0,0,0-.51.09l-3.35,3.63a.43.43,0,0,1-.49.1l-2-.89a.43.43,0,0,1-.25-.46l.7-4.63a.43.43,0,0,1,.1-.21l10.29-12.15a.43.43,0,0,0-.61-.6l-12.31,10.92a.43.43,0,0,1-.49.06l-5.69-3.05A.43.43,0,0,1,953.54,617.65Z" transform="translate(-953.34 -601.7)"/></svg>