<svg id="Layer_1" data-name="Layer 1" xmlns="http://www.w3.org/2000/svg" viewBox="0 0 50 50"><defs><style>.cls-1{fill:#f05922;}.cls-2,.cls-4{fill:#fff;}.cls-2{isolation:isolate;}.cls-3{fill:none;}</style></defs><title>starnote icon</title><circle class="cls-1" cx="25" cy="25" r="25"/><polygon class="cls-2" points="17.83 26.86 19.46 23.18 19.41 23.61 18.34 27.24 17.83 26.86"/><path class="cls-2" d="M1234.92,900.5a2.19,2.19,0,0,0-1.93-1.6l-7.67-.61h-.19l-4.76-8.54a1.66,1.66,0,0,0-3,.1l-3.34,7.71a.89.89,0,0,0-.07.47l-8.3.93a2.26,2.26,0,0,0-1.3,3.94l5.87,5.2a.89.89,0,0,0,.18.12l-1.79,8.78a1.92,1.92,0,0,0,.82,2,1.86,1.86,0,0,0,1,.29,2.09,2.09,0,0,0,.74-.14,5.44,5.44,0,0,0,.8-.37l7.12-4.21,6.91,4a2.22,2.22,0,0,0,3.28-2.4l-1.81-7.85a.89.89,0,0,0-.06-.18,74.3,74.3,0,0,1,6.11-4.87l.59-.44A2.19,2.19,0,0,0,1234.92,900.5ZM1213.26,904v0h0a.14.14,0,0,0,0,.05,1,1,0,0,0,0-.12h0v0l0-.06,0,0a0,0,0,0,1,0,0h0a.15.15,0,0,1,0,0v0a.25.25,0,0,1,0-.09v-.09h0a0,0,0,0,1,0,0h0v0l0,0v0l0,.09a.21.21,0,0,1,0,.1v0C1213.27,903.86,1213.24,903.93,1213.26,904Zm3.88-4.79a.9.9,0,0,0,.11-.2h.08Z" transform="translate(-1193.73 -880.07)"/><path class="cls-3" d="M1223.45,905.63a3.14,3.14,0,0,1,.23.77A3.14,3.14,0,0,0,1223.45,905.63Z" transform="translate(-1193.73 -880.07)"/><path class="cls-3" d="M1223,904.92a3.19,3.19,0,0,1,.44.71A3.19,3.19,0,0,0,1223,904.92Z" transform="translate(-1193.73 -880.07)"/><path class="cls-3" d="M1223.72,906.66q0,.13,0,.27Q1223.73,906.79,1223.72,906.66Z" transform="translate(-1193.73 -880.07)"/><path class="cls-3" d="M1219.75,912c-.26.17-.51.32-.76.47Z" transform="translate(-1193.73 -880.07)"/><path class="cls-3" d="M1220.82,903.55a4.4,4.4,0,0,1,1.4.65A4.4,4.4,0,0,0,1220.82,903.55Z" transform="translate(-1193.73 -880.07)"/><path class="cls-3" d="M1223.15,909.12a4.19,4.19,0,0,1-.5.61A4.19,4.19,0,0,0,1223.15,909.12Z" transform="translate(-1193.73 -880.07)"/><path class="cls-3" d="M1223.73,907.22a4.27,4.27,0,0,1-.13.8A4.27,4.27,0,0,0,1223.73,907.22Z" transform="translate(-1193.73 -880.07)"/><path class="cls-3" d="M1217.93,902.9a1,1,0,0,1,.38.25A1,1,0,0,0,1217.93,902.9Z" transform="translate(-1193.73 -880.07)"/><path class="cls-3" d="M1220,903.41a4.69,4.69,0,0,1,.77.14A4.69,4.69,0,0,0,1220,903.41Z" transform="translate(-1193.73 -880.07)"/><path class="cls-3" d="M1216.63,901.94a1.2,1.2,0,0,1,.24.14A1.2,1.2,0,0,0,1216.63,901.94Z" transform="translate(-1193.73 -880.07)"/><path class="cls-3" d="M1218.12,912.93l-.5.27Z" transform="translate(-1193.73 -880.07)"/><path class="cls-3" d="M1218.41,903.26l0,0Z" transform="translate(-1193.73 -880.07)"/><path class="cls-3" d="M1218.44,903.31v0Z" transform="translate(-1193.73 -880.07)"/><polygon class="cls-3" points="25.74 18.87 25.74 18.87 24.24 20.27 25.74 18.87"/><path class="cls-3" d="M1216,899.65a5.38,5.38,0,0,0-.72.42A5.38,5.38,0,0,1,1216,899.65Z" transform="translate(-1193.73 -880.07)"/><path class="cls-3" d="M1213.25,903.93s-.1-.3-.1-.3h0v.06a1.59,1.59,0,0,1,.11.24Z" transform="translate(-1193.73 -880.07)"/><path class="cls-3" d="M1216.5,901.89l-.14,0h0Z" transform="translate(-1193.73 -880.07)"/><path class="cls-3" d="M1214.14,901.15a4.59,4.59,0,0,1,.51-.58A4.59,4.59,0,0,0,1214.14,901.15Z" transform="translate(-1193.73 -880.07)"/><path class="cls-3" d="M1217.14,902.38a1,1,0,0,0-.26-.3A1,1,0,0,1,1217.14,902.38Z" transform="translate(-1193.73 -880.07)"/><path class="cls-3" d="M1223.26,908.93l0-.08a5.24,5.24,0,0,0,.29-.82,5.24,5.24,0,0,1-.29.82A.42.42,0,0,1,1223.26,908.93Z" transform="translate(-1193.73 -880.07)"/><path class="cls-3" d="M1217.93,902.9a1.27,1.27,0,0,0-.31-.07l3.67-3.88-3.66,3.88A1.27,1.27,0,0,1,1217.93,902.9Z" transform="translate(-1193.73 -880.07)"/><polygon class="cls-3" points="21.91 32.72 21.91 32.72 25.93 28.23 21.91 32.72"/><path class="cls-1" d="M1231.19,900.32l-6.69-.54,1.1,2.75c0,.07,0,.12,0,.12s0,0-.05,0l-6-10.7a.67.67,0,0,0-1.22,0l-2.92,6.75,3.42.27a.07.07,0,0,1,.06,0l.6-.06h0l-1.5,1.4-1.61,1.5.14,0,.14.05a1.2,1.2,0,0,1,.24.14,1,1,0,0,1,.26.3l.06.12v0l3.26-3.5.83-.07-3.65,3.88a1.27,1.27,0,0,1,.31.07,1,1,0,0,1,.38.25l.09.11,0,0v0l1.37.07.23,0a4.69,4.69,0,0,1,.77.14,4.4,4.4,0,0,1,1.4.65,4.12,4.12,0,0,1,.59.51l.2.22a3.19,3.19,0,0,1,.44.71,3.14,3.14,0,0,1,.23.77q0,.13,0,.26t0,.27v.29a4.27,4.27,0,0,1-.13.8,5.24,5.24,0,0,1-.29.82l0,.08-.11.2a4.19,4.19,0,0,1-.5.61,16,16,0,0,1-2.63,2l-.26.17c-.26.17-.51.32-.76.47l-.88.51-.5.27a2.87,2.87,0,0,1-.39.19l.44-.5.25-.29.29-.33.31-.36.67-.76,1.62-1.85a.86.86,0,0,1-.48-.29,1.63,1.63,0,0,1-.28-.47l-4,4.46-.45-.24h0l4-4.49a1,1,0,0,1-.79-.53l-.06-.11,0-.11a6.37,6.37,0,0,1-1.7-.05l-.44-.09a4.85,4.85,0,0,1-1.67-.78,4.31,4.31,0,0,1-.57-.5l-.24-.28a3.88,3.88,0,0,1-.67-1.27l-.13-.43,0-.2a4.12,4.12,0,0,1,.81-2.79,4.59,4.59,0,0,1,.51-.58,4.94,4.94,0,0,1,.61-.5,5.38,5.38,0,0,1,.72-.42,5.91,5.91,0,0,1,.82-.32l-9.35,1a1.2,1.2,0,0,0-.69,2.09l5.12,4.56,1.14-3.38s0,0,0,0,.05,0,.08.08v-.06h0l.1.3h0a1.59,1.59,0,0,0-.11-.24l-2.41,11.86a.89.89,0,0,0,.38.95.84.84,0,0,0,.46.13,1.05,1.05,0,0,0,.37-.07,4,4,0,0,0,.58-.27l6.66-4,6.4,3.78a1.16,1.16,0,0,0,1.72-1.25l-1.58-6.87-2.43,1.8c2.4-3,6.07-5.58,8.52-7.4a1.15,1.15,0,0,0-.59-2.07Z" transform="translate(-1193.73 -880.07)"/><path class="cls-4" d="M1214.64,900.57a4.59,4.59,0,0,0-.51.58,4.12,4.12,0,0,0-.81,2.79l0,.2.13.43a3.88,3.88,0,0,0,.67,1.27l.24.28a4.31,4.31,0,0,0,.57.5,4.85,4.85,0,0,0,1.67.78l.44.09a6.37,6.37,0,0,0,1.7.05l0,.11.06.11a1,1,0,0,0,.79.53l-4,4.49h0l.46.23,4-4.48a1.63,1.63,0,0,0,.28.47.86.86,0,0,0,.48.29l-1.64,1.86-.67.76-.31.36-.29.33-.25.29c-.27.31-.74.76-.74.76l2.07-1.23.76-.47.26-.17a16.1,16.1,0,0,0,2.63-2,4.19,4.19,0,0,0,.5-.61l.11-.2,0-.08a5.24,5.24,0,0,0,.29-.82,4.27,4.27,0,0,0,.13-.8,2.79,2.79,0,0,0,0-.29c0-.1,0-.17,0-.27s0-.17,0-.26a3.14,3.14,0,0,0-.23-.77,3.19,3.19,0,0,0-.44-.71l-.2-.22a4.12,4.12,0,0,0-.59-.51,4.4,4.4,0,0,0-1.4-.65,4.69,4.69,0,0,0-.77-.14l-.23,0-1.37-.07v0s0,0,0,0l-.09-.11a1,1,0,0,0-.38-.25,1.27,1.27,0,0,0-.31-.07l3.69-3.87-.83.07-3.26,3.5v0l-.06-.12a1,1,0,0,0-.26-.3,1.2,1.2,0,0,0-.24-.14l-.14-.05-.14,0h0l1.61-1.5,1.5-1.4h0l-.6.06-1.24.13-.33.05-.51.14a5.91,5.91,0,0,0-.82.32,5.38,5.38,0,0,0-.72.42A4.94,4.94,0,0,0,1214.64,900.57Zm7.17,5.28a.2.2,0,0,1,.39.1.2.2,0,0,1,0,.09.2.2,0,0,1-.08.07l-.06,0a.2.2,0,0,1-.12,0,.2.2,0,0,1-.11-.2A.21.21,0,0,1,1221.81,905.85Zm-.34.31.41.3-.69,2.21a1,1,0,0,1-.34-.08l-.19-.11-.08-.06-.14-.13-.1-.13a1.28,1.28,0,0,1-.13-.22,1.22,1.22,0,0,1-.59-.17,1.13,1.13,0,0,1-.44-.5Zm-6.21-1.1a.2.2,0,0,1-.08.07l-.06,0a.2.2,0,0,1-.12,0,.2.2,0,0,1-.11-.2.21.21,0,0,1,0-.06.2.2,0,0,1,.11-.1.2.2,0,0,1,.25.3Zm.8-2.84a1.06,1.06,0,0,1,.62.25l.07.07.12.13,0,.06.07.11.05.11.27,0,.22.08.09.05a1.17,1.17,0,0,1,.36.35.88.88,0,0,1,.08.15l-2.3,1.1-.64-.47.28-.63Z" transform="translate(-1193.73 -880.07)"/><path class="cls-4" d="M1215.76,904.74l2.3-1.1a.88.88,0,0,0-.08-.15,1.17,1.17,0,0,0-.36-.35l-.09-.05-.22-.08-.27,0-.05-.11-.07-.11,0-.06-.12-.13-.07-.07a1.06,1.06,0,0,0-.62-.25l-.63,1.41-.28.63Z" transform="translate(-1193.73 -880.07)"/><path class="cls-1" d="M1215.76,904.74l2.3-1.1a.88.88,0,0,0-.08-.15,1.17,1.17,0,0,0-.36-.35l-.09-.05-.22-.08-.27,0-.05-.11-.07-.11,0-.06-.12-.13-.07-.07a1.06,1.06,0,0,0-.62-.25l-.63,1.41-.28.63Z" transform="translate(-1193.73 -880.07)"/><path class="cls-4" d="M1215.2,904.78a.17.17,0,0,0-.2,0,.2.2,0,0,0-.11.1.21.21,0,0,0,0,.06.2.2,0,0,0,.11.2.2.2,0,0,0,.12,0l.06,0a.2.2,0,0,0,.08-.07.2.2,0,0,0,0-.09A.2.2,0,0,0,1215.2,904.78Z" transform="translate(-1193.73 -880.07)"/><path class="cls-1" d="M1215.2,904.78a.17.17,0,0,0-.2,0,.2.2,0,0,0-.11.1.21.21,0,0,0,0,.06.2.2,0,0,0,.11.2.2.2,0,0,0,.12,0l.06,0a.2.2,0,0,0,.08-.07.2.2,0,0,0,0-.09A.2.2,0,0,0,1215.2,904.78Z" transform="translate(-1193.73 -880.07)"/><path class="cls-4" d="M1219.6,907.77a1.22,1.22,0,0,0,.59.17,1.28,1.28,0,0,0,.13.22l.1.13.14.13.08.06.19.11a1,1,0,0,0,.34.08l.69-2.21-.39-.31-2.3,1.1A1.13,1.13,0,0,0,1219.6,907.77Z" transform="translate(-1193.73 -880.07)"/><path class="cls-1" d="M1219.6,907.77a1.22,1.22,0,0,0,.59.17,1.28,1.28,0,0,0,.13.22l.1.13.14.13.08.06.19.11a1,1,0,0,0,.34.08l.69-2.21-.39-.31-2.3,1.1A1.13,1.13,0,0,0,1219.6,907.77Z" transform="translate(-1193.73 -880.07)"/><path class="cls-4" d="M1221.9,906.11a.2.2,0,0,0,.12,0l.06,0a.2.2,0,0,0,.08-.07.2.2,0,0,0,0-.09.19.19,0,0,0-.28-.2.2.2,0,0,0-.11.1.21.21,0,0,0,0,.06A.2.2,0,0,0,1221.9,906.11Z" transform="translate(-1193.73 -880.07)"/><path class="cls-1" d="M1221.9,906.11a.2.2,0,0,0,.12,0l.06,0a.2.2,0,0,0,.08-.07.2.2,0,0,0,0-.09.19.19,0,0,0-.28-.2.2.2,0,0,0-.11.1.21.21,0,0,0,0,.06A.2.2,0,0,0,1221.9,906.11Z" transform="translate(-1193.73 -880.07)"/><polygon class="cls-4" points="32.25 28.08 29.54 29.71 31.67 27.85 32.25 28.08"/><polygon class="cls-4" points="23.25 22.2 26.64 18.86 28.03 18.8 24 22.95 23.25 22.2"/><polygon class="cls-4" points="25.82 27.95 20.57 33.71 21.31 34.1 26.55 28.53 25.82 27.95"/><polygon class="cls-2" points="30.95 19.42 31.98 22.82 31.78 22.56 30.54 19.5 30.95 19.42"/></svg>