<svg id="Layer_1" data-name="Layer 1" xmlns="http://www.w3.org/2000/svg" viewBox="0 0 50 50"><defs><style>.cls-1{fill:#26a6d1;}.cls-2{fill:#fff;}</style></defs><title>twitter icon</title><path class="cls-1" d="M951.73,879a25,25,0,1,1-25,25A25,25,0,0,1,951.73,879Z" transform="translate(-926.73 -879.03)"/><path class="cls-2" d="M967.36,895.87a12.45,12.45,0,0,1-3.5.93,6,6,0,0,0,2.68-3.27,12.35,12.35,0,0,1-3.87,1.44,6.17,6.17,0,0,0-4.45-1.87,6,6,0,0,0-6.09,5.91,5.74,5.74,0,0,0,.16,1.35,17.48,17.48,0,0,1-12.56-6.18,5.74,5.74,0,0,0-.83,3,5.86,5.86,0,0,0,2.71,4.92,6.19,6.19,0,0,1-2.76-.74v.08a6,6,0,0,0,4.89,5.8,6.3,6.3,0,0,1-1.6.21,6.14,6.14,0,0,1-1.15-.11,6.08,6.08,0,0,0,5.69,4.11,12.46,12.46,0,0,1-7.57,2.53,12.81,12.81,0,0,1-1.45-.08,17.63,17.63,0,0,0,9.34,2.66,17,17,0,0,0,17.33-16.83l0-.77A12.16,12.16,0,0,0,967.36,895.87Z" transform="translate(-926.73 -879.03)"/></svg>