<svg id="Layer_1" data-name="Layer 1" xmlns="http://www.w3.org/2000/svg" viewBox="0 0 21.39 21.34"><title>user icon</title><path d="M1010.08,354.24a9,9,0,0,0-3-5.23,10.79,10.79,0,0,0-4.12-2.46,6.42,6.42,0,1,0-1.85.93,9.77,9.77,0,0,1,4.64,2.36,8.12,8.12,0,0,1,2.23,2.71,7.25,7.25,0,0,1,.62,2H990.4a4,4,0,0,1,.06-1.15,4.15,4.15,0,0,1,.56-1.37,15.42,15.42,0,0,1,3.54-3.56,1.08,1.08,0,0,0,.32-.33.85.85,0,0,0-.05-.88.86.86,0,0,0-.66-.14l-.13,0a16.91,16.91,0,0,0-2.12,1.61,9.94,9.94,0,0,0-2.29,2.62,8,8,0,0,0-.87,2.37v2.33h21.33A7.35,7.35,0,0,0,1010.08,354.24Zm-15.86-12.93a5,5,0,1,1,5,5A5,5,0,0,1,994.23,341.31Z" transform="translate(-988.75 -334.78)"/></svg>