<svg id="Layer_1" data-name="Layer 1" xmlns="http://www.w3.org/2000/svg" viewBox="0 0 75 48.91"><defs><style>.cls-1{fill:#f6f6f6;}.cls-2{fill:#265697;}.cls-3{fill:#d97b16;}</style></defs><title>visa icon</title><g id="Page-1"><g id="Visa"><rect id="Rectangle-20" class="cls-1" y="4.4" width="75" height="39.13"/><g id="Group_145" data-name="Group 145"><path id="Path_214" data-name="Path 214" class="cls-2" d="M1658.24,557.21h75v-9.78h-75Z" transform="translate(-1658.24 -547.42)"/><path id="Path_215" data-name="Path 215" class="cls-2" d="M1733.24,547.42h0" transform="translate(-1658.24 -547.42)"/></g><path id="Rectangle-1" class="cls-3" d="M1658.24,586.55v9.78h75v-9.78Z" transform="translate(-1658.24 -547.42)"/><path id="Shape" class="cls-2" d="M1710.58,561.93a11.74,11.74,0,0,0-4.73-.82c-5.22,0-9,2.77-9,6.85,0,2.93,2.61,4.57,4.57,5.54,2.12,1,2.77,1.63,2.77,2.61,0,1.3-1.63,2-3.26,2a10.48,10.48,0,0,1-5.05-1.14l-.49-.16-.82,4.73a13.84,13.84,0,0,0,5.87,1.14c5.54,0,9.13-2.77,9.29-7.17,0-2.28-1.47-4.08-4.4-5.54-1.79-1-2.93-1.63-2.93-2.61,0-.82,1-1.79,3.1-1.79a8.24,8.24,0,0,1,3.91.82l.49.16.65-4.57" transform="translate(-1658.24 -547.42)"/><path id="Shape-2" data-name="Shape" class="cls-2" d="M1724.11,561.44H1720a2.48,2.48,0,0,0-2.77,1.79l-7.83,19.08H1715a26.12,26.12,0,0,1,1.14-3.1H1723c.16.82.65,3.1.65,3.1h4.89Zm-6.52,13.37c.49-1.14,2.12-5.87,2.12-5.87s.49-1.3.65-2l.33,1.79s1,4.89,1.14,6Z" transform="translate(-1658.24 -547.42)"/><path id="Shape-3" data-name="Shape" class="cls-2" d="M1686,582.31l3.26-20.71h5.22l-3.26,20.71Z" transform="translate(-1658.24 -547.42)"/><path id="Shape-4" data-name="Shape" class="cls-2" d="M1681.56,561.44l-5.22,14.18-.49-2.93a15.74,15.74,0,0,0-7.34-8.64l4.73,18.1h5.54l8.32-20.71h-5.54" transform="translate(-1658.24 -547.42)"/><path id="Shape-5" data-name="Shape" class="cls-3" d="M1671.61,561.44H1663v.49c6.68,1.63,11.09,5.87,12.88,10.92l-2-9.62a2.12,2.12,0,0,0-2.28-1.79" transform="translate(-1658.24 -547.42)"/></g></g></svg>