<svg id="Layer_1" data-name="Layer 1" xmlns="http://www.w3.org/2000/svg" viewBox="0 0 50 50"><defs><style>.cls-1{fill:#c4302b;}.cls-2{fill:#fff;}</style></defs><title>youtube icon</title><path class="cls-1" d="M1152.6,880.07a25,25,0,1,1-25,25A25,25,0,0,1,1152.6,880.07Z" transform="translate(-1127.6 -880.07)"/><path class="cls-2" d="M1152,900.39a2.94,2.94,0,0,0,1.86-.61,1.78,1.78,0,0,0,.68-1.48v-3.79a1.66,1.66,0,0,0-.69-1.37,2.82,2.82,0,0,0-1.77-.53,3.18,3.18,0,0,0-1.89.5,1.59,1.59,0,0,0-.7,1.36v3.8a1.82,1.82,0,0,0,.68,1.49A2.85,2.85,0,0,0,1152,900.39Zm-.83-5.74a.41.41,0,0,1,.22-.35,1.13,1.13,0,0,1,.58-.13,1.27,1.27,0,0,1,.63.13.4.4,0,0,1,.24.35v3.6a.48.48,0,0,1-.23.42,1.15,1.15,0,0,1-.63.15,1,1,0,0,1-.6-.15.49.49,0,0,1-.21-.42Zm6.06,5.73a2,2,0,0,0,.85-.32,3.2,3.2,0,0,0,.85-.71v.84h1.48v-7.6h-1.48v5.77a2.09,2.09,0,0,1-.45.41.84.84,0,0,1-.41.16.35.35,0,0,1-.3-.12.63.63,0,0,1-.1-.39V892.6h-1.47v6.35a1.68,1.68,0,0,0,.26,1A1,1,0,0,0,1157.23,900.38Zm4.29,3.14h-17.84a5,5,0,0,0-5.14,4.93v4.17a5,5,0,0,0,5.14,4.94h17.84a5,5,0,0,0,5.14-4.94v-4.17A5,5,0,0,0,1161.52,903.53Zm-15.19,4.23h-1.58v6.53h-1.53v-6.53h-1.58v-1.11h4.68Zm4.71,6.63h-1.65v-.68a3.51,3.51,0,0,1-1,.57,2.5,2.5,0,0,1-1,.2,1.19,1.19,0,0,1-.86-.28,1.09,1.09,0,0,1-.29-.83v-5.16H1148v4.73a.43.43,0,0,0,.1.32.49.49,0,0,0,.34.1,1.13,1.13,0,0,0,.46-.13,2.11,2.11,0,0,0,.51-.33v-4.69H1151Zm6.23-1.17a1.15,1.15,0,0,1-.38.93,1.65,1.65,0,0,1-1.1.32,2.68,2.68,0,0,1-.85-.12,2.14,2.14,0,0,1-.7-.39v.44h-1.64v-7.74h1.64v2.5a2.67,2.67,0,0,1,.7-.4,2.14,2.14,0,0,1,.75-.14,1.71,1.71,0,0,1,1.18.36,1.36,1.36,0,0,1,.41,1.07Zm6.26-1.74h-3v1.12a1,1,0,0,0,.15.65.69.69,0,0,0,.54.18.79.79,0,0,0,.55-.15,1,1,0,0,0,.16-.68v-.27h1.63v.3a1.61,1.61,0,0,1-.6,1.37,2.89,2.89,0,0,1-1.78.46,2.62,2.62,0,0,1-1.68-.49,1.62,1.62,0,0,1-.61-1.34V910a1.49,1.49,0,0,1,.68-1.26,2.9,2.9,0,0,1,1.73-.48,2.71,2.71,0,0,1,1.67.45,1.53,1.53,0,0,1,.58,1.29Zm-18.08-11.06h1.86v-4.54l2.17-6.41h-1.9l-1.15,4.38h-.12l-1.21-4.38h-1.88l2.22,6.61Zm9.47,9.11-.35.06-.34.17v3.56a1.43,1.43,0,0,0,.39.2l.39.06a.65.65,0,0,0,.44-.12.49.49,0,0,0,.14-.39v-3a.54.54,0,0,0-.17-.44A.77.77,0,0,0,1154.91,909.52Z" transform="translate(-1127.6 -880.07)"/><path class="cls-2" d="M1161.28,909.26a.75.75,0,0,0-.54.16.72.72,0,0,0-.16.53v.6h1.4v-.6a.6.6,0,0,0-.7-.69Z" transform="translate(-1127.6 -880.07)"/></svg>